<svg xmlns="http://www.w3.org/2000/svg" xmlns:xlink="http://www.w3.org/1999/xlink" width="404.929" height="43.018" viewBox="0 0 404.929 43.018">
  <defs>
    <clipPath id="clip-path">
      <rect id="長方形_1012" data-name="長方形 1012" width="62.349" height="43.017" fill="#222"/>
    </clipPath>
  </defs>
  <g id="グループ_3097" data-name="グループ 3097" transform="translate(7111 13410)">
    <path id="パス_1434" data-name="パス 1434" d="M6.237-7.722v1.507H4.191V0H2.31V-6.215H.264V-7.722Zm4.6,7.8a4.03,4.03,0,0,1-2-.506A3.783,3.783,0,0,1,7.4-1.843a3.95,3.95,0,0,1-.534-2.04A3.921,3.921,0,0,1,7.4-5.918,3.794,3.794,0,0,1,8.839-7.326a4.03,4.03,0,0,1,2-.506,4.03,4.03,0,0,1,2,.506,3.715,3.715,0,0,1,1.43,1.408,3.985,3.985,0,0,1,.523,2.035,3.982,3.982,0,0,1-.528,2.04,3.754,3.754,0,0,1-1.43,1.414A4,4,0,0,1,10.835.077Zm0-1.716a1.9,1.9,0,0,0,1.48-.616,2.338,2.338,0,0,0,.555-1.628,2.334,2.334,0,0,0-.555-1.634,1.9,1.9,0,0,0-1.48-.61,1.925,1.925,0,0,0-1.491.605,2.33,2.33,0,0,0-.556,1.639A2.334,2.334,0,0,0,9.344-2.25,1.916,1.916,0,0,0,10.835-1.639ZM24.574-7.722V0H22.693V-4.631L20.966,0H19.448L17.71-4.642V0H15.829V-7.722h2.222l2.167,5.346,2.145-5.346Zm5,7.8a4.03,4.03,0,0,1-2-.506,3.783,3.783,0,0,1-1.441-1.414,3.95,3.95,0,0,1-.533-2.04,3.921,3.921,0,0,1,.533-2.035,3.794,3.794,0,0,1,1.441-1.408,4.03,4.03,0,0,1,2-.506,4.03,4.03,0,0,1,2,.506,3.715,3.715,0,0,1,1.43,1.408,3.985,3.985,0,0,1,.522,2.035A3.982,3.982,0,0,1,33-1.843,3.754,3.754,0,0,1,31.57-.429,4,4,0,0,1,29.579.077Zm0-1.716a1.9,1.9,0,0,0,1.48-.616,2.338,2.338,0,0,0,.555-1.628,2.334,2.334,0,0,0-.555-1.634,1.9,1.9,0,0,0-1.48-.61,1.925,1.925,0,0,0-1.49.605,2.33,2.33,0,0,0-.556,1.639,2.334,2.334,0,0,0,.556,1.633A1.916,1.916,0,0,0,29.579-1.639ZM40.128-7.722v1.507H38.082V0H36.2V-6.215H34.155V-7.722Zm4.6,7.8a4.03,4.03,0,0,1-2-.506,3.783,3.783,0,0,1-1.441-1.414,3.95,3.95,0,0,1-.534-2.04,3.921,3.921,0,0,1,.534-2.035,3.794,3.794,0,0,1,1.441-1.408,4.03,4.03,0,0,1,2-.506,4.03,4.03,0,0,1,2,.506,3.715,3.715,0,0,1,1.43,1.408,3.985,3.985,0,0,1,.523,2.035,3.982,3.982,0,0,1-.528,2.04,3.754,3.754,0,0,1-1.43,1.414A4,4,0,0,1,44.726.077Zm0-1.716a1.9,1.9,0,0,0,1.479-.616,2.338,2.338,0,0,0,.556-1.628,2.334,2.334,0,0,0-.556-1.634,1.9,1.9,0,0,0-1.479-.61,1.925,1.925,0,0,0-1.491.605,2.33,2.33,0,0,0-.555,1.639,2.334,2.334,0,0,0,.555,1.633A1.916,1.916,0,0,0,44.726-1.639ZM52.514.077A3.972,3.972,0,0,1,51-.2a2.474,2.474,0,0,1-1.072-.814,2.224,2.224,0,0,1-.424-1.3h2a.971.971,0,0,0,.3.655.955.955,0,0,0,.66.225,1.032,1.032,0,0,0,.66-.192.644.644,0,0,0,.242-.533.631.631,0,0,0-.193-.473,1.553,1.553,0,0,0-.473-.308,7.609,7.609,0,0,0-.8-.275,8.683,8.683,0,0,1-1.221-.462,2.256,2.256,0,0,1-.814-.682,1.9,1.9,0,0,1-.341-1.177A2.024,2.024,0,0,1,50.3-7.221a3.209,3.209,0,0,1,2.035-.611,3.246,3.246,0,0,1,2.057.611,2.185,2.185,0,0,1,.836,1.7H53.2a.8.8,0,0,0-.275-.589.969.969,0,0,0-.649-.214.809.809,0,0,0-.55.181.655.655,0,0,0-.209.523.648.648,0,0,0,.352.583,5.77,5.77,0,0,0,1.1.451A10.173,10.173,0,0,1,54.18-4.1a2.314,2.314,0,0,1,.809.671A1.8,1.8,0,0,1,55.33-2.3a2.223,2.223,0,0,1-.335,1.2,2.35,2.35,0,0,1-.973.858A3.333,3.333,0,0,1,52.514.077Zm10.659-7.8V0H61.292V-3.179H58.366V0H56.485V-7.722h1.881V-4.7h2.926V-7.722Zm3.234,0V0H64.526V-7.722ZM72.9.077A3.972,3.972,0,0,1,71.379-.2a2.474,2.474,0,0,1-1.073-.814,2.224,2.224,0,0,1-.424-1.3h2a.971.971,0,0,0,.3.655.955.955,0,0,0,.66.225,1.032,1.032,0,0,0,.66-.192.644.644,0,0,0,.242-.533.631.631,0,0,0-.192-.473,1.553,1.553,0,0,0-.473-.308,7.609,7.609,0,0,0-.8-.275,8.683,8.683,0,0,1-1.221-.462,2.256,2.256,0,0,1-.814-.682A1.9,1.9,0,0,1,69.9-5.533a2.024,2.024,0,0,1,.781-1.688,3.209,3.209,0,0,1,2.035-.611,3.246,3.246,0,0,1,2.057.611,2.185,2.185,0,0,1,.836,1.7H73.579A.8.8,0,0,0,73.3-6.11a.969.969,0,0,0-.649-.214.809.809,0,0,0-.55.181.655.655,0,0,0-.209.523.648.648,0,0,0,.352.583,5.77,5.77,0,0,0,1.1.451,10.173,10.173,0,0,1,1.215.484,2.314,2.314,0,0,1,.808.671A1.8,1.8,0,0,1,75.713-2.3a2.223,2.223,0,0,1-.336,1.2,2.35,2.35,0,0,1-.973.858A3.333,3.333,0,0,1,72.9.077Zm10.659-7.8V0H81.675V-3.179H78.749V0H76.868V-7.722h1.881V-4.7h2.926V-7.722Zm5,7.8a4.03,4.03,0,0,1-2-.506,3.783,3.783,0,0,1-1.441-1.414,3.95,3.95,0,0,1-.534-2.04,3.921,3.921,0,0,1,.534-2.035,3.794,3.794,0,0,1,1.441-1.408,4.03,4.03,0,0,1,2-.506,4.03,4.03,0,0,1,2,.506,3.715,3.715,0,0,1,1.43,1.408,3.985,3.985,0,0,1,.522,2.035,3.982,3.982,0,0,1-.528,2.04,3.754,3.754,0,0,1-1.43,1.414A4,4,0,0,1,88.561.077Zm0-1.716a1.9,1.9,0,0,0,1.479-.616A2.338,2.338,0,0,0,90.6-3.883a2.334,2.334,0,0,0-.556-1.634,1.9,1.9,0,0,0-1.479-.61,1.925,1.925,0,0,0-1.491.605,2.33,2.33,0,0,0-.555,1.639A2.334,2.334,0,0,0,87.07-2.25,1.916,1.916,0,0,0,88.561-1.639ZM98.032,0l-2.6-3.41V0H93.555V-7.722h1.881v3.388L98.01-7.722h2.211L97.229-3.938,100.331,0Zm8-1.364h-2.882L102.685,0h-1.969l2.794-7.722h2.178L108.482,0h-1.991Zm-.484-1.452-.957-2.827-.946,2.827Zm5.665-4.906V0h-1.881V-7.722Zm3.377,3.85a4.151,4.151,0,0,1,.5-2.041,3.538,3.538,0,0,1,1.381-1.4,4.008,4.008,0,0,1,2.007-.5,3.841,3.841,0,0,1,2.354.726,3.486,3.486,0,0,1,1.309,1.98h-2.068a1.67,1.67,0,0,0-.655-.737,1.84,1.84,0,0,0-.963-.253,1.8,1.8,0,0,0-1.408.605,2.341,2.341,0,0,0-.539,1.617,2.341,2.341,0,0,0,.539,1.617,1.8,1.8,0,0,0,1.408.6,1.84,1.84,0,0,0,.963-.253,1.67,1.67,0,0,0,.655-.737h2.068a3.461,3.461,0,0,1-1.309,1.974,3.861,3.861,0,0,1-2.354.72,4.008,4.008,0,0,1-2.007-.5,3.548,3.548,0,0,1-1.381-1.391A4.119,4.119,0,0,1,114.587-3.872ZM126.94.077a4.03,4.03,0,0,1-2-.506A3.783,3.783,0,0,1,123.5-1.843a3.95,3.95,0,0,1-.534-2.04,3.921,3.921,0,0,1,.534-2.035,3.794,3.794,0,0,1,1.441-1.408,4.03,4.03,0,0,1,2-.506,4.03,4.03,0,0,1,2,.506,3.715,3.715,0,0,1,1.43,1.408,3.985,3.985,0,0,1,.523,2.035,3.982,3.982,0,0,1-.528,2.04,3.754,3.754,0,0,1-1.43,1.414A4,4,0,0,1,126.94.077Zm0-1.716a1.9,1.9,0,0,0,1.48-.616,2.338,2.338,0,0,0,.555-1.628,2.334,2.334,0,0,0-.555-1.634,1.9,1.9,0,0,0-1.48-.61,1.925,1.925,0,0,0-1.491.605,2.33,2.33,0,0,0-.555,1.639,2.334,2.334,0,0,0,.555,1.633A1.916,1.916,0,0,0,126.94-1.639ZM132.814.088a1.14,1.14,0,0,1-.809-.292.945.945,0,0,1-.313-.72.974.974,0,0,1,.313-.737,1.128,1.128,0,0,1,.809-.3,1.113,1.113,0,0,1,.8.3.974.974,0,0,1,.314.737.945.945,0,0,1-.314.72A1.125,1.125,0,0,1,132.814.088Zm4.246-1.826-1.221,3.157h-1.2l.638-3.157Zm3.014.286h2.464V0h-4.345V-7.722h1.881Zm8.921-6.27v1.507h-2.046V0h-1.881V-6.215h-2.046V-7.722Zm3.839,0a4.491,4.491,0,0,1,2.134.484,3.458,3.458,0,0,1,1.413,1.359,3.992,3.992,0,0,1,.5,2.018,4,4,0,0,1-.5,2.013,3.44,3.44,0,0,1-1.419,1.364A4.5,4.5,0,0,1,152.834,0h-2.893V-7.722Zm-.121,6.094a2.27,2.27,0,0,0,1.661-.583,2.207,2.207,0,0,0,.594-1.65,2.245,2.245,0,0,0-.594-1.661,2.245,2.245,0,0,0-1.661-.594h-.891v4.488Zm6.1,1.716a1.14,1.14,0,0,1-.809-.292.945.945,0,0,1-.313-.72.974.974,0,0,1,.313-.737,1.128,1.128,0,0,1,.809-.3,1.113,1.113,0,0,1,.8.3.974.974,0,0,1,.314.737.945.945,0,0,1-.314.72A1.125,1.125,0,0,1,158.818.088Z" transform="translate(-6866 -13382)" fill="#222"/>
    <g id="グループ_2647" data-name="グループ 2647" transform="translate(-7122 -13454.548)">
      <path id="パス_1432" data-name="パス 1432" d="M7.85-2.4V-16.775q0-.65-.062-1.5a13.118,13.118,0,0,0-.188-1.5h3.9q-.075.65-.15,1.438t-.075,1.563V-2.4q0,.35.025.988T11.4-.1q.075.675.1,1.2H7.6q.1-.75.175-1.75T7.85-2.4Zm2.675-10.9q1.25.325,2.8.838t3.125,1.087q1.575.575,2.962,1.137T21.725-9.2L20.3-5.75q-1.05-.55-2.325-1.113T15.387-7.95q-1.312-.525-2.575-.975t-2.288-.8Zm18.75-5.075q.55.025,1.15.075t1.3.05H43.75q.65,0,1.225-.038T46-18.375v3.125q-.475-.025-1.013-.05t-1.237-.025H31.725q-.7,0-1.3.012t-1.15.063Zm8.6,8.8v5.35a1.578,1.578,0,0,0,.675,1.45,4.229,4.229,0,0,0,2.175.425q1.7,0,3.325-.1t3.125-.25L46.95.675q-.8.05-1.938.1T42.6.85q-1.275.025-2.45.025a9.72,9.72,0,0,1-3.513-.5,3.152,3.152,0,0,1-1.713-1.412,4.683,4.683,0,0,1-.475-2.187V-16.05h3.425v6.475ZM27.625-11.2q.55.025,1.362.075t1.388.05h15.05q.275,0,.725-.025t.912-.037q.463-.013.787-.038l.025,3.2q-.5-.05-1.225-.062T45.5-8.05H30.375q-.525,0-1.35.038t-1.4.087ZM57.85-2.4V-16.775q0-.65-.062-1.5a13.119,13.119,0,0,0-.187-1.5h3.9q-.075.65-.15,1.438t-.075,1.563V-2.4q0,.35.025.988T61.4-.1q.075.675.1,1.2H57.6q.1-.75.175-1.75T57.85-2.4Zm2.675-10.9q1.25.325,2.8.838t3.125,1.087q1.575.575,2.963,1.137T71.725-9.2L70.3-5.75q-1.05-.55-2.325-1.113T65.387-7.95q-1.312-.525-2.575-.975t-2.287-.8Zm22.2-6.5q.6.35,1.375.825L85.688-18q.812.5,1.525.962t1.213.813L86.55-13.45q-.5-.375-1.225-.85t-1.5-.975q-.775-.5-1.537-.963T80.9-17.05ZM78.075-2.05q1.425-.25,2.863-.612a25.475,25.475,0,0,0,2.875-.913A24.05,24.05,0,0,0,86.6-4.85a28.1,28.1,0,0,0,3.963-2.7,26.155,26.155,0,0,0,3.3-3.2,21.6,21.6,0,0,0,2.462-3.475l1.925,3.4a26.448,26.448,0,0,1-4.312,4.9A33.426,33.426,0,0,1,88.3-1.85,24.79,24.79,0,0,1,85.512-.5Q84,.125,82.537.587a20.82,20.82,0,0,1-2.588.663Zm.8-12.05q.625.35,1.412.813t1.588.962q.8.5,1.512.95t1.188.8l-1.825,2.8q-.55-.375-1.25-.838t-1.488-.975q-.788-.512-1.55-.962t-1.412-.775Zm22.65-5.25H123.5v2.725H101.525Zm9.325-1.9h3.075v3.525H110.85Zm-8.5,6.575H121.6v2.6H105.2V2.2h-2.85Zm17.7,0h2.875V-1a4.692,4.692,0,0,1-.263,1.725,2,2,0,0,1-.987,1.025,5.78,5.78,0,0,1-1.825.412q-1.075.088-2.55.088-.075-.4-.225-.925t-.35-1.037A5.9,5.9,0,0,0,116.3-.6q1,.025,1.938.038T119.5-.55a.634.634,0,0,0,.425-.112.5.5,0,0,0,.125-.387ZM108.65-12.4h2.65a8.314,8.314,0,0,1-.5,2.575A3.9,3.9,0,0,1,109.325-8a9.193,9.193,0,0,1-3.05,1.2,4.408,4.408,0,0,0-.562-1.125,5.438,5.438,0,0,0-.787-.975,7.624,7.624,0,0,0,2.325-.712,2.349,2.349,0,0,0,1.063-1.112A4.921,4.921,0,0,0,108.65-12.4Zm4.65-.025h2.575V-10.5q0,.4.1.488a.7.7,0,0,0,.425.087h1.275a.544.544,0,0,0,.337-.087.669.669,0,0,0,.175-.388,6.007,6.007,0,0,0,.088-.9,4.254,4.254,0,0,0,1.012.488q.662.238,1.162.362a3.68,3.68,0,0,1-.725,2.15,2.317,2.317,0,0,1-1.7.55H116a4.276,4.276,0,0,1-1.687-.262,1.436,1.436,0,0,1-.8-.85,4.9,4.9,0,0,1-.212-1.613Zm-5.65,5.6h2.675v7.9H107.65Zm1.65,0h8.225v6.55H109.3V-2.5h5.525V-4.6H109.3Zm-3.3-9.85,2.975-.5a11.27,11.27,0,0,1,.675,1.312,9.426,9.426,0,0,1,.475,1.288L107-13.95a8.1,8.1,0,0,0-.387-1.325A12.351,12.351,0,0,0,106-16.675Zm9.775-.525,3.325.5-.838,1.487a11.483,11.483,0,0,1-.737,1.163l-2.975-.5q.325-.575.675-1.325A14.331,14.331,0,0,0,115.775-17.2Zm11.55,15.75q2.225-.075,5.163-.163t6.175-.212q3.237-.125,6.387-.25l-.1,2.75q-3.05.175-6.187.313t-5.962.275q-2.825.138-5.1.237ZM127.2-8.875h20.775v2.8H127.2Zm4.45-4.825h11.725v2.75H131.65Zm1.65,6.65,3.425.925q-.575,1.175-1.213,2.388t-1.25,2.313q-.613,1.1-1.162,1.95L130.475-.35q.5-.925,1.05-2.087t1.013-2.375Q133-6.025,133.3-7.05Zm6.225,2.575,2.625-1.4q1.125.975,2.225,2.1T146.4-1.513A18.829,18.829,0,0,1,147.9.575l-2.8,1.7A15.314,15.314,0,0,0,143.688.138q-.913-1.188-2-2.412A28.6,28.6,0,0,0,139.525-4.475Zm-2.05-13.85a19.4,19.4,0,0,1-2.575,2.912,29.173,29.173,0,0,1-3.5,2.813,30.077,30.077,0,0,1-4,2.325,4.561,4.561,0,0,0-.463-.837q-.313-.463-.65-.9a7.919,7.919,0,0,0-.662-.762,23.2,23.2,0,0,0,4.125-2.363,26.912,26.912,0,0,0,3.538-3,18.343,18.343,0,0,0,2.487-3.062h3.15a21.843,21.843,0,0,0,2.225,2.6,22.754,22.754,0,0,0,2.6,2.238,23.865,23.865,0,0,0,2.837,1.8,22.808,22.808,0,0,0,2.963,1.338,8.493,8.493,0,0,0-1.05,1.3q-.5.75-.9,1.425a29.48,29.48,0,0,1-3.8-2.15,32.12,32.12,0,0,1-3.588-2.75A19.483,19.483,0,0,1,137.475-18.325Z" transform="translate(81 84.548)" fill="#222"/>
      <path id="パス_1433" data-name="パス 1433" d="M5.754-6.02h7.714v1.512H5.754ZM7.2-9.464H13.1v1.512H7.2ZM8.834-11.9h1.638V1.246H8.834ZM8.372-5.236l1.3.392a14.35,14.35,0,0,1-.959,2.135A12.4,12.4,0,0,1,7.448-.826,8.353,8.353,0,0,1,5.95.616,4.645,4.645,0,0,0,5.621.175q-.2-.245-.413-.469a4.775,4.775,0,0,0-.392-.378,6.7,6.7,0,0,0,1.449-1.19,10.464,10.464,0,0,0,1.225-1.6A9.939,9.939,0,0,0,8.372-5.236Zm2.618.07a11.381,11.381,0,0,0,.742,1.645,11.551,11.551,0,0,0,1,1.533A7.916,7.916,0,0,0,13.846-.8q-.182.154-.413.378a6.118,6.118,0,0,0-.441.476,5.5,5.5,0,0,0-.35.462A8.173,8.173,0,0,1,11.529-.945a15.139,15.139,0,0,1-.959-1.862,19.026,19.026,0,0,1-.742-2.009ZM6.706-11.2l1.54.266a17.984,17.984,0,0,1-.6,2.6,8.166,8.166,0,0,1-.952,2.093,3.288,3.288,0,0,0-.385-.287q-.245-.161-.49-.308t-.441-.245a6.4,6.4,0,0,0,.847-1.848A14.728,14.728,0,0,0,6.706-11.2ZM.574-9.282H5.642v1.554H.574ZM2.394-11.9H4.046V1.246H2.394ZM2.38-8.134l.9.364q-.14.868-.364,1.785T2.4-4.193a17.272,17.272,0,0,1-.623,1.631,8.151,8.151,0,0,1-.7,1.288,4.235,4.235,0,0,0-.21-.546q-.14-.308-.294-.616T.28-2.968A7.217,7.217,0,0,0,.938-4.011a13.627,13.627,0,0,0,.6-1.309q.28-.7.5-1.428A14.247,14.247,0,0,0,2.38-8.134Zm1.582.714q.126.154.371.518t.525.8q.28.434.518.812T5.7-4.76l-.98,1.134q-.112-.322-.3-.756T4-5.278q-.224-.462-.427-.868T3.22-6.818ZM24-10.976,25.1-11.9q.322.21.679.49t.672.56a5.856,5.856,0,0,1,.511.5l-1.19,1.022a3.288,3.288,0,0,0-.469-.539q-.3-.287-.644-.581T24-10.976Zm-9.282,1.47h12.6v1.638h-12.6Zm.532,3.234h6.062v1.624H15.246Zm2.114.924h1.68V-.6H17.36ZM14.714-.826l1.981-.329q1.141-.189,2.422-.413t2.555-.462l.112,1.5q-1.148.252-2.324.5T17.192.441L15.176.868ZM21.6-11.844h1.806q-.042,1.736.049,3.388t.3,3.094a22.083,22.083,0,0,0,.5,2.534,7.246,7.246,0,0,0,.651,1.708q.357.616.763.616.238,0,.357-.6a14.166,14.166,0,0,0,.175-1.932,4.829,4.829,0,0,0,.707.574,3.506,3.506,0,0,0,.763.406,8.454,8.454,0,0,1-.371,2.051,1.884,1.884,0,0,1-.686.994,2.008,2.008,0,0,1-1.1.273A1.975,1.975,0,0,1,24.178.742,4.374,4.374,0,0,1,23.156-.693a10.952,10.952,0,0,1-.728-2.163,25.568,25.568,0,0,1-.476-2.709q-.182-1.463-.266-3.059T21.6-11.844ZM29.3-.812Q30.548-.854,32.193-.9t3.458-.119l3.577-.14L39.172.378q-1.708.1-3.465.175T32.368.707Q30.786.784,29.512.84Zm-.07-4.158H40.866V-3.4H29.232Zm2.492-2.7H38.29v1.54H31.724Zm.924,3.724,1.918.518q-.322.658-.679,1.337T33.187-.8q-.343.616-.651,1.092L31.066-.2q.28-.518.588-1.169t.567-1.33Q32.48-3.374,32.648-3.948Zm3.486,1.442L37.6-3.29q.63.546,1.246,1.176T39.984-.847a10.545,10.545,0,0,1,.84,1.169l-1.568.952a8.576,8.576,0,0,0-.791-1.2q-.511-.665-1.12-1.351A16.017,16.017,0,0,0,36.134-2.506Zm-1.148-7.756a10.862,10.862,0,0,1-1.442,1.631,16.337,16.337,0,0,1-1.96,1.575,16.843,16.843,0,0,1-2.24,1.3,2.554,2.554,0,0,0-.259-.469q-.175-.259-.364-.5a4.435,4.435,0,0,0-.371-.427,12.991,12.991,0,0,0,2.31-1.323,15.071,15.071,0,0,0,1.981-1.68,10.273,10.273,0,0,0,1.393-1.715H35.8a12.232,12.232,0,0,0,1.246,1.456A12.743,12.743,0,0,0,38.5-9.163a13.363,13.363,0,0,0,1.589,1.008,12.772,12.772,0,0,0,1.659.749,4.756,4.756,0,0,0-.588.728q-.28.42-.5.8a16.509,16.509,0,0,1-2.128-1.2,17.988,17.988,0,0,1-2.009-1.54A10.91,10.91,0,0,1,34.986-10.262ZM47.74-.8h7.966V.854H47.74Zm.574-6.762H55.37v1.624H48.314Zm2.66-4.2H52.71V0H50.974ZM42.714-9.3h4.578v1.512H42.714Zm2,4.774L46.382-6.51V1.26H44.716Zm0-7.364h1.666V-8.6H44.716ZM46.2-6.034a5.86,5.86,0,0,1,.539.413q.343.287.735.63t.714.63l.462.413L47.642-2.576q-.21-.266-.511-.623t-.637-.735q-.336-.378-.658-.714t-.546-.56ZM46.69-9.3h.322l.294-.07.938.616a12.522,12.522,0,0,1-1.358,2.611,14.74,14.74,0,0,1-1.848,2.233A12.1,12.1,0,0,1,42.98-2.254a4.47,4.47,0,0,0-.217-.539q-.147-.315-.294-.6a2.5,2.5,0,0,0-.287-.455A8.5,8.5,0,0,0,44.03-5.173a11.671,11.671,0,0,0,1.582-1.806A8.586,8.586,0,0,0,46.69-9Z" transform="translate(87 57.548)" fill="#222"/>
    </g>
    <g id="グループ_3096" data-name="グループ 3096" transform="translate(-7111 -13410)">
      <g id="グループ_3095" data-name="グループ 3095" transform="translate(0 0)" clip-path="url(#clip-path)">
        <path id="パス_983" data-name="パス 983" d="M101.965,98.92q.22.058.438.111-.218-.053-.438-.111" transform="translate(-62.721 -60.848)" fill="#222"/>
        <path id="パス_984" data-name="パス 984" d="M103.474,99.3q.279.067.554.127-.275-.059-.554-.127" transform="translate(-63.649 -61.081)" fill="#222"/>
        <path id="パス_985" data-name="パス 985" d="M48.693,7.272l.159.055-.159-.055" transform="translate(-29.952 -4.473)" fill="#222"/>
        <path id="パス_986" data-name="パス 986" d="M100.211,98.44c.166.048.331.093.5.137-.164-.044-.329-.09-.5-.137" transform="translate(-61.642 -60.552)" fill="#222"/>
        <path id="パス_987" data-name="パス 987" d="M52.795,8.786l.091.036-.091-.036" transform="translate(-32.475 -5.404)" fill="#222"/>
        <path id="パス_988" data-name="パス 988" d="M98.468,97.92c.2.06.39.119.582.175-.193-.056-.387-.115-.582-.175" transform="translate(-60.57 -60.233)" fill="#222"/>
        <path id="パス_989" data-name="パス 989" d="M105.248,99.7q.217.046.431.087-.214-.042-.431-.087" transform="translate(-64.74 -61.326)" fill="#222"/>
        <path id="パス_990" data-name="パス 990" d="M50.683,7.984l.094.034-.094-.034" transform="translate(-31.176 -4.911)" fill="#222"/>
        <path id="パス_991" data-name="パス 991" d="M44.826,6.013l.105.032-.105-.032" transform="translate(-27.573 -3.699)" fill="#222"/>
        <path id="パス_992" data-name="パス 992" d="M111.347,100.662c.169.017.337.032.5.044-.166-.012-.333-.027-.5-.044" transform="translate(-68.492 -61.919)" fill="#222"/>
        <path id="パス_993" data-name="パス 993" d="M106.8,100.008q.228.042.453.079-.225-.037-.453-.079" transform="translate(-65.697 -61.517)" fill="#222"/>
        <path id="パス_994" data-name="パス 994" d="M112.662,100.776c.165.012.326.02.487.026-.161-.007-.323-.015-.487-.026" transform="translate(-69.301 -61.989)" fill="#222"/>
        <path id="パス_995" data-name="パス 995" d="M109.938,100.5c.132.017.263.032.393.046-.13-.014-.261-.029-.393-.046" transform="translate(-67.625 -61.82)" fill="#222"/>
        <path id="パス_996" data-name="パス 996" d="M46.9,6.667l.067.022L46.9,6.667" transform="translate(-28.852 -4.101)" fill="#222"/>
        <path id="パス_997" data-name="パス 997" d="M108.213,100.254c.177.029.351.054.525.077-.173-.023-.348-.049-.525-.077" transform="translate(-66.564 -61.668)" fill="#222"/>
        <path id="パス_998" data-name="パス 998" d="M54.648,9.53l.167.069-.167-.069" transform="translate(-33.615 -5.862)" fill="#222"/>
        <path id="パス_999" data-name="パス 999" d="M58.86,11.346l.119.054-.119-.054" transform="translate(-36.206 -6.979)" fill="#222"/>
        <path id="パス_1000" data-name="パス 1000" d="M60.761,12.225l.179.085-.179-.085" transform="translate(-37.375 -7.52)" fill="#222"/>
        <path id="パス_1001" data-name="パス 1001" d="M78.278,89.29c.217.116.434.231.65.343-.216-.112-.433-.227-.65-.343" transform="translate(-48.15 -54.924)" fill="#222"/>
        <path id="パス_1002" data-name="パス 1002" d="M83.938,92.158q.318.152.634.3-.316-.145-.634-.3" transform="translate(-51.632 -56.688)" fill="#222"/>
        <path id="パス_1003" data-name="パス 1003" d="M82.207,91.315q.243.121.485.237-.242-.117-.485-.237" transform="translate(-50.567 -56.17)" fill="#222"/>
        <path id="パス_1004" data-name="パス 1004" d="M62.919,13.264,63,13.3l-.08-.039" transform="translate(-38.703 -8.159)" fill="#222"/>
        <path id="パス_1005" data-name="パス 1005" d="M80.163,90.282q.292.151.582.3-.29-.145-.582-.3" transform="translate(-49.31 -55.534)" fill="#222"/>
        <path id="パス_1006" data-name="パス 1006" d="M96.862,97.4l.443.143-.443-.143" transform="translate(-59.582 -59.916)" fill="#222"/>
        <path id="パス_1007" data-name="パス 1007" d="M42.941,5.463l.154.043-.154-.043" transform="translate(-26.414 -3.36)" fill="#222"/>
        <path id="パス_1008" data-name="パス 1008" d="M87.8,93.922q.25.109.5.214-.248-.105-.5-.214" transform="translate(-54.008 -57.773)" fill="#222"/>
        <path id="パス_1009" data-name="パス 1009" d="M94.831,96.711c.2.072.4.14.6.207-.2-.067-.4-.135-.6-.207" transform="translate(-58.332 -59.489)" fill="#222"/>
        <path id="パス_1010" data-name="パス 1010" d="M93.234,96.126q.275.1.548.2-.272-.1-.548-.2" transform="translate(-57.35 -59.129)" fill="#222"/>
        <path id="パス_1011" data-name="パス 1011" d="M91.526,95.469q.231.091.461.179-.23-.087-.461-.179" transform="translate(-56.299 -58.725)" fill="#222"/>
        <path id="パス_1012" data-name="パス 1012" d="M89.467,94.634q.309.129.616.252-.307-.122-.616-.252" transform="translate(-55.033 -58.211)" fill="#222"/>
        <path id="パス_1013" data-name="パス 1013" d="M56.725,10.4l.087.037-.087-.037" transform="translate(-34.893 -6.4)" fill="#222"/>
        <path id="パス_1014" data-name="パス 1014" d="M85.964,93.1q.252.115.5.226-.25-.111-.5-.226" transform="translate(-52.878 -57.269)" fill="#222"/>
        <path id="パス_1015" data-name="パス 1015" d="M128.7,101.855l-.085.085.085-.085" transform="translate(-79.116 -62.653)" fill="#222"/>
        <path id="パス_1016" data-name="パス 1016" d="M127.921,102.652l-.04.036.04-.036" transform="translate(-78.662 -63.143)" fill="#222"/>
        <path id="パス_1017" data-name="パス 1017" d="M30.694,3.066l.027,0-.027,0" transform="translate(-18.88 -1.886)" fill="#222"/>
        <path id="パス_1018" data-name="パス 1018" d="M28.824,2.918l.147.009-.147-.009" transform="translate(-17.73 -1.795)" fill="#222"/>
        <path id="パス_1019" data-name="パス 1019" d="M126.949,103.359c-.031.023-.063.044-.095.067.032-.022.064-.044.095-.067" transform="translate(-78.03 -63.578)" fill="#222"/>
        <path id="パス_1020" data-name="パス 1020" d="M129.409,101.107c-.025.029-.051.057-.077.086.026-.028.052-.057.077-.086" transform="translate(-79.555 -62.193)" fill="#222"/>
        <path id="パス_1021" data-name="パス 1021" d="M127.726,97.306c.089-.064.174-.132.257-.2-.083.07-.169.137-.257.2" transform="translate(-78.567 -59.731)" fill="#222"/>
        <path id="パス_1022" data-name="パス 1022" d="M128.564,96.7c.06-.052.119-.105.176-.16-.057.055-.116.108-.176.16" transform="translate(-79.082 -59.384)" fill="#222"/>
        <path id="パス_1023" data-name="パス 1023" d="M32.21,3.238l.155.02-.155-.02" transform="translate(-19.813 -1.992)" fill="#222"/>
        <path id="パス_1024" data-name="パス 1024" d="M122.927,105.519l-.134.052.134-.052" transform="translate(-75.532 -64.907)" fill="#222"/>
        <path id="パス_1025" data-name="パス 1025" d="M25.92,2.821h0" transform="translate(-15.942 -1.735)" fill="#222"/>
        <path id="パス_1026" data-name="パス 1026" d="M121.855,105.921l-.111.037.111-.037" transform="translate(-74.887 -65.154)" fill="#222"/>
        <path id="パス_1027" data-name="パス 1027" d="M114.287,100.855q.185.006.366.007-.181,0-.366-.007" transform="translate(-70.3 -62.038)" fill="#222"/>
        <path id="パス_1028" data-name="パス 1028" d="M123.966,105.1l-.107.047.107-.047" transform="translate(-76.188 -64.647)" fill="#222"/>
        <path id="パス_1029" data-name="パス 1029" d="M27.319,2.845l.157.006-.157-.006" transform="translate(-16.804 -1.75)" fill="#222"/>
        <path id="パス_1030" data-name="パス 1030" d="M125.143,104.522l-.08.045.08-.045" transform="translate(-76.929 -64.294)" fill="#222"/>
        <path id="パス_1031" data-name="パス 1031" d="M126.073,103.94l-.111.07.111-.07" transform="translate(-77.482 -63.936)" fill="#222"/>
        <path id="パス_1032" data-name="パス 1032" d="M65.743,15.879q-.318-.152-.633-.3.315.145.633.3" transform="translate(-40.05 -9.585)" fill="#222"/>
        <path id="パス_1033" data-name="パス 1033" d="M39.2,4.5l.119.027L39.2,4.5" transform="translate(-24.114 -2.771)" fill="#222"/>
        <path id="パス_1034" data-name="パス 1034" d="M121.391,100.179c.111-.023.219-.049.327-.077-.107.028-.216.053-.327.077" transform="translate(-74.67 -61.575)" fill="#222"/>
        <path id="パス_1035" data-name="パス 1035" d="M119.236,100.591q.151-.018.3-.041-.147.023-.3.041" transform="translate(-73.344 -61.85)" fill="#222"/>
        <path id="パス_1036" data-name="パス 1036" d="M118.126,100.724q.148-.012.294-.028-.145.016-.294.028" transform="translate(-72.662 -61.94)" fill="#222"/>
        <path id="パス_1037" data-name="パス 1037" d="M41.229,5l.048.013L41.229,5" transform="translate(-25.361 -3.076)" fill="#222"/>
        <path id="パス_1038" data-name="パス 1038" d="M127.013,97.852c.082-.052.162-.105.24-.161-.078.055-.158.109-.24.161" transform="translate(-78.128 -60.092)" fill="#222"/>
        <path id="パス_1039" data-name="パス 1039" d="M122.518,99.909c.087-.023.173-.048.258-.075-.085.026-.171.051-.258.075" transform="translate(-75.363 -61.41)" fill="#222"/>
        <path id="パス_1040" data-name="パス 1040" d="M126.243,98.367q.107-.058.21-.121-.1.062-.21.121" transform="translate(-77.655 -60.433)" fill="#222"/>
        <path id="パス_1041" data-name="パス 1041" d="M33.851,3.468l.134.02-.134-.02" transform="translate(-20.822 -2.133)" fill="#222"/>
        <path id="パス_1042" data-name="パス 1042" d="M125.357,98.811c.084-.039.167-.08.249-.122-.081.043-.164.083-.249.122" transform="translate(-77.11 -60.706)" fill="#222"/>
        <path id="パス_1043" data-name="パス 1043" d="M37.432,4.115l.152.032-.152-.032" transform="translate(-23.025 -2.531)" fill="#222"/>
        <path id="パス_1044" data-name="パス 1044" d="M123.466,99.593c.094-.03.185-.063.275-.1-.09.034-.182.066-.275.1" transform="translate(-75.946 -61.203)" fill="#222"/>
        <path id="パス_1045" data-name="パス 1045" d="M35.812,3.8l.035.007L35.812,3.8" transform="translate(-22.029 -2.335)" fill="#222"/>
        <path id="パス_1046" data-name="パス 1046" d="M124.35,99.218q.167-.065.327-.136-.16.072-.327.136" transform="translate(-76.49 -60.947)" fill="#222"/>
        <path id="パス_1047" data-name="パス 1047" d="M56.588,12.066q-.274-.1-.545-.2.271.1.545.2" transform="translate(-34.473 -7.299)" fill="#222"/>
        <path id="パス_1048" data-name="パス 1048" d="M40.126,7.936q-.2-.025-.392-.046.195.021.392.046" transform="translate(-24.441 -4.853)" fill="#222"/>
        <path id="パス_1049" data-name="パス 1049" d="M29.8,8q-.2.032-.386.071.189-.039.386-.071" transform="translate(-18.095 -4.922)" fill="#222"/>
        <path id="パス_1050" data-name="パス 1050" d="M41.641,8.134q-.264-.043-.523-.077.259.035.523.077" transform="translate(-25.292 -4.956)" fill="#222"/>
        <path id="パス_1051" data-name="パス 1051" d="M38.544,7.779c-.169-.017-.336-.032-.5-.043.165.012.333.027.5.043" transform="translate(-23.4 -4.759)" fill="#222"/>
        <path id="パス_1052" data-name="パス 1052" d="M46.333,9.01q-.279-.067-.554-.126.275.059.554.126" transform="translate(-28.16 -5.465)" fill="#222"/>
        <path id="パス_1053" data-name="パス 1053" d="M44.755,8.674q-.216-.046-.43-.087.214.041.43.087" transform="translate(-27.265 -5.282)" fill="#222"/>
        <path id="パス_1054" data-name="パス 1054" d="M43.17,8.378q-.227-.042-.45-.079.223.037.45.079" transform="translate(-26.278 -5.105)" fill="#222"/>
        <path id="パス_1055" data-name="パス 1055" d="M81.141,24.291q-.333-.212-.666-.418.333.206.666.418" transform="translate(-49.502 -14.685)" fill="#222"/>
        <path id="パス_1056" data-name="パス 1056" d="M77.246,21.933q-.289-.172-.577-.339.289.167.577.339" transform="translate(-47.161 -13.283)" fill="#222"/>
        <path id="パス_1057" data-name="パス 1057" d="M32.1,7.744q-.148.012-.293.028.145-.016.293-.028" transform="translate(-19.564 -4.763)" fill="#222"/>
        <path id="パス_1058" data-name="パス 1058" d="M37.252,7.695c-.164-.012-.325-.02-.485-.026.16.006.321.014.485.026" transform="translate(-22.616 -4.717)" fill="#222"/>
        <path id="パス_1059" data-name="パス 1059" d="M30.984,7.855c-.1.012-.2.026-.3.04.1-.015.2-.028.3-.04" transform="translate(-18.877 -4.832)" fill="#222"/>
        <path id="パス_1060" data-name="パス 1060" d="M85.072,26.828q-.282-.191-.563-.376.282.186.563.376" transform="translate(-51.983 -16.271)" fill="#222"/>
        <path id="パス_1061" data-name="パス 1061" d="M35.821,7.646q-.184-.006-.365-.007.181,0,.365.007" transform="translate(-21.81 -4.699)" fill="#222"/>
        <path id="パス_1062" data-name="パス 1062" d="M83.126,25.551q-.267-.174-.533-.345.267.171.533.345" transform="translate(-50.805 -15.505)" fill="#222"/>
        <path id="パス_1063" data-name="パス 1063" d="M33.314,7.657c-.143.005-.283.013-.421.023.139-.01.279-.018.421-.023" transform="translate(-20.233 -4.71)" fill="#222"/>
        <path id="パス_1064" data-name="パス 1064" d="M76.484,88.311q.246.136.491.269-.245-.133-.491-.269" transform="translate(-47.047 -54.322)" fill="#222"/>
        <path id="パス_1065" data-name="パス 1065" d="M58.431,12.758q-.231-.091-.461-.179.23.087.461.179" transform="translate(-35.658 -7.738)" fill="#222"/>
        <path id="パス_1066" data-name="パス 1066" d="M60.239,13.475q-.309-.129-.616-.252.307.123.616.252" transform="translate(-36.675 -8.134)" fill="#222"/>
        <path id="パス_1067" data-name="パス 1067" d="M69.6,17.757q-.292-.151-.583-.3.291.145.583.3" transform="translate(-42.454 -10.741)" fill="#222"/>
        <path id="パス_1068" data-name="パス 1068" d="M63.927,15.049q-.251-.114-.5-.225.249.11.5.225" transform="translate(-39.015 -9.119)" fill="#222"/>
        <path id="パス_1069" data-name="パス 1069" d="M24.19,2.851l.154-.007-.154.007" transform="translate(-14.88 -1.749)" fill="#222"/>
        <path id="パス_1070" data-name="パス 1070" d="M67.71,16.818q-.242-.12-.484-.237.242.117.484.237" transform="translate(-41.352 -10.199)" fill="#222"/>
        <path id="パス_1071" data-name="パス 1071" d="M62.1,14.249q-.249-.109-.5-.212.247.1.5.212" transform="translate(-37.893 -8.634)" fill="#222"/>
        <path id="パス_1072" data-name="パス 1072" d="M75.373,20.855q-.33-.191-.659-.374.328.184.659.374" transform="translate(-45.958 -12.598)" fill="#222"/>
        <path id="パス_1073" data-name="パス 1073" d="M73.424,19.771q-.247-.137-.492-.27.245.133.492.27" transform="translate(-44.862 -11.995)" fill="#222"/>
        <path id="パス_1074" data-name="パス 1074" d="M49.689,9.852q-.248-.071-.494-.137.246.066.494.137" transform="translate(-30.261 -5.976)" fill="#222"/>
        <path id="パス_1075" data-name="パス 1075" d="M48.03,9.414q-.219-.057-.436-.11.216.053.436.11" transform="translate(-29.276 -5.723)" fill="#222"/>
        <path id="パス_1076" data-name="パス 1076" d="M54.9,11.47q-.3-.107-.6-.206.3.1.6.206" transform="translate(-33.405 -6.929)" fill="#222"/>
        <path id="パス_1077" data-name="パス 1077" d="M51.294,10.311q-.292-.091-.581-.175.289.084.581.175" transform="translate(-31.195 -6.235)" fill="#222"/>
        <path id="パス_1078" data-name="パス 1078" d="M71.376,18.674q-.326-.175-.65-.344.324.169.65.344" transform="translate(-43.505 -11.275)" fill="#222"/>
        <path id="パス_1079" data-name="パス 1079" d="M53.125,10.877q-.221-.073-.44-.142.219.069.44.142" transform="translate(-32.408 -6.603)" fill="#222"/>
        <path id="パス_1080" data-name="パス 1080" d="M79.22,23.108q-.259-.159-.517-.314.258.155.517.314" transform="translate(-48.412 -14.021)" fill="#222"/>
        <path id="パス_1081" data-name="パス 1081" d="M73.314,18.893l.2.121-.2-.121" transform="translate(-45.097 -11.621)" fill="#222"/>
        <path id="パス_1082" data-name="パス 1082" d="M71.352,17.751l.174.1-.174-.1" transform="translate(-43.89 -10.919)" fill="#222"/>
        <path id="パス_1083" data-name="パス 1083" d="M60.883,78.408q.258.185.515.366-.257-.181-.515-.366" transform="translate(-37.45 -48.23)" fill="#222"/>
        <path id="パス_1084" data-name="パス 1084" d="M58.633,76.769q.335.249.672.491-.336-.243-.672-.491" transform="translate(-36.066 -47.222)" fill="#222"/>
        <path id="パス_1085" data-name="パス 1085" d="M77.7,21.578l.2.125-.2-.125" transform="translate(-47.797 -13.273)" fill="#222"/>
        <path id="パス_1086" data-name="パス 1086" d="M75.61,20.274l.063.038-.063-.038" transform="translate(-46.509 -12.471)" fill="#222"/>
        <path id="パス_1087" data-name="パス 1087" d="M79.677,22.848l.213.139-.213-.139" transform="translate(-49.011 -14.054)" fill="#222"/>
        <path id="パス_1088" data-name="パス 1088" d="M74.269,87.06q.33.19.658.373-.329-.184-.658-.373" transform="translate(-45.684 -53.552)" fill="#222"/>
        <path id="パス_1089" data-name="パス 1089" d="M69.226,16.556l.073.04-.073-.04" transform="translate(-42.582 -10.184)" fill="#222"/>
        <path id="パス_1090" data-name="パス 1090" d="M72.524,86.036q.289.171.576.338-.287-.167-.576-.338" transform="translate(-44.611 -52.922)" fill="#222"/>
        <path id="パス_1091" data-name="パス 1091" d="M65.059,14.338l.146.075-.146-.075" transform="translate(-40.019 -8.82)" fill="#222"/>
        <path id="パス_1092" data-name="パス 1092" d="M68.49,83.555q.333.212.665.417-.332-.206-.665-.417" transform="translate(-42.13 -51.396)" fill="#222"/>
        <path id="パス_1093" data-name="パス 1093" d="M70.65,84.9q.258.159.516.313-.258-.155-.516-.313" transform="translate(-43.458 -52.226)" fill="#222"/>
        <path id="パス_1094" data-name="パス 1094" d="M67,15.351l.191.1-.191-.1" transform="translate(-41.212 -9.443)" fill="#222"/>
        <path id="パス_1095" data-name="パス 1095" d="M24.938,9.506q-.126.058-.248.122.121-.064.248-.122" transform="translate(-15.187 -5.847)" fill="#222"/>
        <path id="パス_1096" data-name="パス 1096" d="M26.788,8.765q-.14.046-.275.1.135-.05.275-.1" transform="translate(-16.309 -5.392)" fill="#222"/>
        <path id="パス_1097" data-name="パス 1097" d="M25.82,9.076q-.167.064-.327.136.16-.072.327-.136" transform="translate(-15.681 -5.583)" fill="#222"/>
        <path id="パス_1098" data-name="パス 1098" d="M88.521,29.007q.552.41,1.089.827-.538-.416-1.089-.827" transform="translate(-54.451 -17.843)" fill="#222"/>
        <path id="パス_1099" data-name="パス 1099" d="M86.94,28.092q-.334-.233-.669-.461.334.227.669.461" transform="translate(-53.067 -16.996)" fill="#222"/>
        <path id="パス_1100" data-name="パス 1100" d="M28.779,8.212q-.165.035-.325.076.16-.04.325-.076" transform="translate(-17.503 -5.051)" fill="#222"/>
        <path id="パス_1101" data-name="パス 1101" d="M27.763,8.484c-.087.023-.172.048-.257.074.085-.026.17-.051.257-.074" transform="translate(-16.919 -5.219)" fill="#222"/>
        <path id="パス_1102" data-name="パス 1102" d="M88.987,29.519q-.258-.185-.517-.366.259.181.517.366" transform="translate(-54.42 -17.933)" fill="#222"/>
        <path id="パス_1103" data-name="パス 1103" d="M21.848,11.556q-.09.078-.176.16.085-.082.176-.16" transform="translate(-13.331 -7.108)" fill="#222"/>
        <path id="パス_1104" data-name="パス 1104" d="M84.071,25.809l.211.148-.211-.148" transform="translate(-51.714 -15.876)" fill="#222"/>
        <path id="パス_1105" data-name="パス 1105" d="M20.573,12.79c-.07.081-.137.164-.2.251.064-.086.132-.169.2-.251" transform="translate(-12.531 -7.867)" fill="#222"/>
        <path id="パス_1106" data-name="パス 1106" d="M82.042,24.416l.045.03-.045-.03" transform="translate(-50.466 -15.019)" fill="#222"/>
        <path id="パス_1107" data-name="パス 1107" d="M22.556,10.883c-.089.064-.174.132-.257.2.083-.069.169-.137.257-.2" transform="translate(-13.717 -6.694)" fill="#222"/>
        <path id="パス_1108" data-name="パス 1108" d="M23.3,10.4q-.122.077-.239.16.117-.083.239-.16" transform="translate(-14.183 -6.399)" fill="#222"/>
        <path id="パス_1109" data-name="パス 1109" d="M24.114,9.952q-.107.058-.21.121.1-.062.21-.121" transform="translate(-14.704 -6.122)" fill="#222"/>
        <path id="パス_1110" data-name="パス 1110" d="M86.05,27.208l.216.155-.216-.155" transform="translate(-52.931 -16.736)" fill="#222"/>
        <path id="パス_1111" data-name="パス 1111" d="M120.273,100.4c.131-.021.26-.045.386-.071-.126.026-.256.05-.386.071" transform="translate(-73.982 -61.713)" fill="#222"/>
        <path id="パス_1112" data-name="パス 1112" d="M28.551,62.421q-.477-.484-.933-.971.456.486.933.971" transform="translate(-16.988 -37.799)" fill="#222"/>
        <path id="パス_1113" data-name="パス 1113" d="M33.994,7.645c.143-.005.289-.007.436-.008-.147,0-.293,0-.436.008" transform="translate(-20.91 -4.698)" fill="#222"/>
        <path id="パス_1114" data-name="パス 1114" d="M21.066,12.334c.051-.057.1-.112.156-.165-.053.054-.105.109-.156.165" transform="translate(-12.958 -7.485)" fill="#222"/>
        <path id="パス_1115" data-name="パス 1115" d="M75.323,96.807l-.117-.057.117.057" transform="translate(-46.261 -59.513)" fill="#222"/>
        <path id="パス_1116" data-name="パス 1116" d="M9.513,8.135c.028-.029.057-.058.086-.086-.029.028-.057.057-.086.086" transform="translate(-5.852 -4.951)" fill="#222"/>
        <path id="パス_1117" data-name="パス 1117" d="M77.3,97.761l-.206-.1.206.1" transform="translate(-47.423 -60.075)" fill="#222"/>
        <path id="パス_1118" data-name="パス 1118" d="M73.04,95.655l-.172-.089.172.089" transform="translate(-44.823 -58.785)" fill="#222"/>
        <path id="パス_1119" data-name="パス 1119" d="M66.712,92.207l-.189-.109.189.109" transform="translate(-40.92 -56.651)" fill="#222"/>
        <path id="パス_1120" data-name="パス 1120" d="M5.54,14.929a6.483,6.483,0,0,1,.16-.647,6.483,6.483,0,0,0-.16.647" transform="translate(-3.408 -8.785)" fill="#222"/>
        <path id="パス_1121" data-name="パス 1121" d="M8.822,8.88c.025-.029.051-.058.077-.086-.026.028-.052.057-.077.086" transform="translate(-5.427 -5.409)" fill="#222"/>
        <path id="パス_1122" data-name="パス 1122" d="M71.048,94.61l-.211-.113.211.113" transform="translate(-43.573 -58.127)" fill="#222"/>
        <path id="パス_1123" data-name="パス 1123" d="M69.024,93.513l-.1-.055.1.055" transform="translate(-42.397 -57.488)" fill="#222"/>
        <path id="パス_1124" data-name="パス 1124" d="M5.189,17.353a7.685,7.685,0,0,1,.135-1.391,7.685,7.685,0,0,0-.135,1.391" transform="translate(-3.192 -9.819)" fill="#222"/>
        <path id="パス_1125" data-name="パス 1125" d="M6.821,9.791h0a5.609,5.609,0,0,0-.863,1.728A5.609,5.609,0,0,1,6.82,9.791h0" transform="translate(-3.664 -6.023)" fill="#222"/>
        <path id="パス_1126" data-name="パス 1126" d="M85.369,101.264l-.138-.055.138.055" transform="translate(-52.427 -62.256)" fill="#222"/>
        <path id="パス_1127" data-name="パス 1127" d="M12.1,6.073,12.214,6l-.114.072" transform="translate(-7.443 -3.691)" fill="#222"/>
        <path id="パス_1128" data-name="パス 1128" d="M79.271,98.677l-.156-.072.156.072" transform="translate(-48.665 -60.654)" fill="#222"/>
        <path id="パス_1129" data-name="パス 1129" d="M87.537,102.092l-.142-.052.142.052" transform="translate(-53.758 -62.767)" fill="#222"/>
        <path id="パス_1130" data-name="パス 1130" d="M10.363,7.417l.043-.038-.043.038" transform="translate(-6.374 -4.539)" fill="#222"/>
        <path id="パス_1131" data-name="パス 1131" d="M11.253,6.658l.1-.068-.1.068" transform="translate(-6.922 -4.054)" fill="#222"/>
        <path id="パス_1132" data-name="パス 1132" d="M81.508,99.67l-.132-.056.132.056" transform="translate(-50.056 -61.275)" fill="#222"/>
        <path id="パス_1133" data-name="パス 1133" d="M90.313,30.465q.337.243.672.492c.139.1.276.206.412.309-.137-.1-.274-.207-.412-.309q-.336-.249-.672-.492" transform="translate(-55.553 -18.74)" fill="#222"/>
        <path id="パス_1134" data-name="パス 1134" d="M89.395,102.761l-.2-.069.2.069" transform="translate(-54.868 -63.168)" fill="#222"/>
        <path id="パス_1135" data-name="パス 1135" d="M83.431,100.482l-.2-.083.2.083" transform="translate(-51.196 -61.757)" fill="#222"/>
        <path id="パス_1136" data-name="パス 1136" d="M12.285,41.3q-.177-.3-.343-.588.167.293.343.588" transform="translate(-7.346 -25.04)" fill="#222"/>
        <path id="パス_1137" data-name="パス 1137" d="M120.51,106.328l-.105.026.105-.026" transform="translate(-74.063 -65.404)" fill="#222"/>
        <path id="パス_1138" data-name="パス 1138" d="M48.265,79.941q.3.227.6.453l0,0,0,0q-.3-.226-.6-.453" transform="translate(-29.689 -49.173)" fill="#222"/>
        <path id="パス_1139" data-name="パス 1139" d="M6.948,29.676q-.1-.287-.188-.569.088.282.188.569" transform="translate(-4.158 -17.904)" fill="#222"/>
        <path id="パス_1140" data-name="パス 1140" d="M46.94,78.923q.254.2.51.392Q47.193,79.12,46.94,78.923Z" transform="translate(-28.874 -48.547)" fill="#222"/>
        <path id="パス_1141" data-name="パス 1141" d="M130.956,86.1h0A5.353,5.353,0,0,1,130,89.555c-.064.086-.132.169-.2.251.07-.081.138-.164.2-.251a5.353,5.353,0,0,0,.956-3.451" transform="translate(-79.841 -52.964)" fill="#222"/>
        <path id="パス_1142" data-name="パス 1142" d="M116.426,100.794q-.419.029-.86.031.442,0,.86-.031" transform="translate(-71.087 -62)" fill="#222"/>
        <path id="パス_1143" data-name="パス 1143" d="M67.457,82.89c-.132-.085-.265-.171-.4-.257h0l.4.257" transform="translate(-41.248 -50.829)" fill="#222"/>
        <path id="パス_1144" data-name="パス 1144" d="M62.819,79.776l-.134-.092.134.093Z" transform="translate(-38.559 -49.015)" fill="#222"/>
        <path id="パス_1145" data-name="パス 1145" d="M129.377,95.912q-.076.085-.156.166.08-.081.156-.166" transform="translate(-79.486 -58.997)" fill="#222"/>
        <path id="パス_1146" data-name="パス 1146" d="M10.343,37.738c-.078-.149-.154-.3-.227-.444.074.147.15.3.227.444" transform="translate(-6.223 -22.94)" fill="#222"/>
        <path id="パス_1147" data-name="パス 1147" d="M58.335,87.054l-.219-.143.219.143" transform="translate(-35.748 -53.461)" fill="#222"/>
        <path id="パス_1148" data-name="パス 1148" d="M5.39,22.658q-.095-.549-.133-1.073.038.524.133,1.073" transform="translate(-3.234 -13.277)" fill="#222"/>
        <path id="パス_1149" data-name="パス 1149" d="M64.713,91.038,64.5,90.91l.216.128" transform="translate(-39.673 -55.921)" fill="#222"/>
        <path id="パス_1150" data-name="パス 1150" d="M60.333,88.344l-.2-.129.2.129" transform="translate(-36.988 -54.263)" fill="#222"/>
        <path id="パス_1151" data-name="パス 1151" d="M62.652,89.8l-.079-.048.079.048" transform="translate(-38.49 -55.206)" fill="#222"/>
        <path id="パス_1152" data-name="パス 1152" d="M21.918,54.97q-.223-.266-.44-.532.216.266.44.532" transform="translate(-13.212 -33.486)" fill="#222"/>
        <path id="パス_1153" data-name="パス 1153" d="M5.8,25.352q-.076-.322-.133-.637.058.315.133.637" transform="translate(-3.485 -15.203)" fill="#222"/>
        <path id="パス_1154" data-name="パス 1154" d="M14.3,44.571q-.382-.567-.729-1.127.348.56.729,1.127" transform="translate(-8.347 -26.723)" fill="#222"/>
        <path id="パス_1155" data-name="パス 1155" d="M51.958,82.67l-.217-.155.217.155" transform="translate(-31.827 -50.756)" fill="#222"/>
        <path id="パス_1156" data-name="パス 1156" d="M15.889,46.989c-.145-.206-.288-.412-.426-.617.138.205.281.411.426.617" transform="translate(-9.512 -28.524)" fill="#222"/>
        <path id="パス_1157" data-name="パス 1157" d="M53.945,84.08l-.211-.148.211.148" transform="translate(-33.053 -51.628)" fill="#222"/>
        <path id="パス_1158" data-name="パス 1158" d="M56.245,85.663l-.05-.034.05.034" transform="translate(-34.567 -52.673)" fill="#222"/>
        <path id="パス_1159" data-name="パス 1159" d="M8.192,33.062q-.111-.26-.213-.517.1.257.213.517" transform="translate(-4.908 -20.019)" fill="#222"/>
        <path id="パス_1160" data-name="パス 1160" d="M109.294,107.193l-.157-.01.157.01" transform="translate(-67.132 -65.93)" fill="#222"/>
        <path id="パス_1161" data-name="パス 1161" d="M18.8,3.477l.158-.033-.158.033" transform="translate(-11.563 -2.118)" fill="#222"/>
        <path id="パス_1162" data-name="パス 1162" d="M107.584,107.052l-.055-.006.055.006" transform="translate(-66.143 -65.846)" fill="#222"/>
        <path id="パス_1163" data-name="パス 1163" d="M8.143,1.559a7.253,7.253,0,0,0-4,2.585A6.809,6.809,0,0,0,2.875,7.537,6.889,6.889,0,0,1,4.163,4.162a7.308,7.308,0,0,1,3.98-2.6" transform="translate(-1.768 -0.959)" fill="#222"/>
        <path id="パス_1164" data-name="パス 1164" d="M112.4,107.3h0" transform="translate(-69.125 -66.005)" fill="#222"/>
        <path id="パス_1165" data-name="パス 1165" d="M110.78,107.27l-.162-.006.162.006" transform="translate(-68.043 -65.98)" fill="#222"/>
        <path id="パス_1166" data-name="パス 1166" d="M17.668,3.752l.117-.029-.117.029" transform="translate(-10.868 -2.29)" fill="#222"/>
        <path id="パス_1167" data-name="パス 1167" d="M104.292,106.625l-.16-.024.16.024" transform="translate(-64.054 -65.572)" fill="#222"/>
        <path id="パス_1168" data-name="パス 1168" d="M16.3,4.145l.12-.04-.12.04" transform="translate(-10.029 -2.525)" fill="#222"/>
        <path id="パス_1169" data-name="パス 1169" d="M105.885,106.853l-.174-.023.174.023" transform="translate(-65.025 -65.713)" fill="#222"/>
        <path id="パス_1170" data-name="パス 1170" d="M102.435,106.308l-.08-.015.08.015" transform="translate(-62.961 -65.383)" fill="#222"/>
        <path id="パス_1171" data-name="パス 1171" d="M22.842,2.925l.163-.012-.163.012" transform="translate(-14.051 -1.792)" fill="#222"/>
        <path id="パス_1172" data-name="パス 1172" d="M118.1,106.836l-.133.023.133-.023" transform="translate(-72.563 -65.717)" fill="#222"/>
        <path id="パス_1173" data-name="パス 1173" d="M116.636,107.061l-.08.008.08-.008" transform="translate(-71.696 -65.855)" fill="#222"/>
        <path id="パス_1174" data-name="パス 1174" d="M119.307,106.6l-.149.031.149-.031" transform="translate(-73.296 -65.571)" fill="#222"/>
        <path id="パス_1175" data-name="パス 1175" d="M17.189,1.353l.1-.025-.1.025" transform="translate(-10.573 -0.817)" fill="#222"/>
        <path id="パス_1176" data-name="パス 1176" d="M113.917,107.264l-.149.006.149-.006" transform="translate(-69.981 -65.98)" fill="#222"/>
        <path id="パス_1177" data-name="パス 1177" d="M20.022,3.254l.144-.025-.144.025" transform="translate(-12.316 -1.986)" fill="#222"/>
        <path id="パス_1178" data-name="パス 1178" d="M21.583,3.05l.095-.01-.095.01" transform="translate(-13.276 -1.87)" fill="#222"/>
        <path id="パス_1179" data-name="パス 1179" d="M115.254,107.183l-.156.011.156-.011" transform="translate(-70.799 -65.93)" fill="#222"/>
        <path id="パス_1180" data-name="パス 1180" d="M31.937,65.863q.29.285.587.568-.3-.284-.587-.568" transform="translate(-19.645 -40.514)" fill="#222"/>
        <path id="パス_1181" data-name="パス 1181" d="M93.372,104.065l-.151-.045.151.045" transform="translate(-57.342 -63.985)" fill="#222"/>
        <path id="パス_1182" data-name="パス 1182" d="M13.073,5.533l.085-.048-.085.048" transform="translate(-8.041 -3.374)" fill="#222"/>
        <path id="パス_1183" data-name="パス 1183" d="M14.212,4.952l.114-.05-.114.05" transform="translate(-8.742 -3.015)" fill="#222"/>
        <path id="パス_1184" data-name="パス 1184" d="M98.97,105.579l-.157-.036.157.036" transform="translate(-60.782 -64.922)" fill="#222"/>
        <path id="パス_1185" data-name="パス 1185" d="M15.206,4.523l.14-.054-.14.054" transform="translate(-9.354 -2.749)" fill="#222"/>
        <path id="パス_1186" data-name="パス 1186" d="M100.663,105.956l-.183-.039.183.039" transform="translate(-61.807 -65.152)" fill="#222"/>
        <path id="パス_1187" data-name="パス 1187" d="M91.287,103.4l-.121-.04.121.04" transform="translate(-56.078 -63.581)" fill="#222"/>
        <path id="パス_1188" data-name="パス 1188" d="M96.992,105.091l-.1-.027.1.027" transform="translate(-59.6 -64.627)" fill="#222"/>
        <path id="パス_1189" data-name="パス 1189" d="M95.153,104.588l-.19-.054.19.054" transform="translate(-58.414 -64.301)" fill="#222"/>
        <path id="パス_1190" data-name="パス 1190" d="M33.46,67.34h0l.159.153-.159-.153" transform="translate(-20.582 -41.422)" fill="#222"/>
        <path id="パス_1191" data-name="パス 1191" d="M37.937,71.465q1.645,1.46,3.465,2.87-1.817-1.406-3.465-2.87" transform="translate(-23.336 -43.96)" fill="#222"/>
        <path id="パス_1192" data-name="パス 1192" d="M36.324,70q-.514-.456-1.01-.916.5.46,1.01.916" transform="translate(-21.722 -42.496)" fill="#222"/>
        <path id="パス_1193" data-name="パス 1193" d="M26.042,38.277H27.4v1.806A49.844,49.844,0,0,0,32.587,45.6V38.277h4.976V34.148H23.607a23.585,23.585,0,0,0,1.215,2.268q.559.925,1.22,1.862" transform="translate(-14.521 -21.005)" fill="#222"/>
        <path id="パス_1194" data-name="パス 1194" d="M64.724,81.084q.281.19.562.375-.281-.185-.562-.375" transform="translate(-39.813 -49.876)" fill="#222"/>
        <path id="パス_1195" data-name="パス 1195" d="M66.849,82.5l-.133-.086.131.086Z" transform="translate(-41.038 -50.691)" fill="#222"/>
        <path id="パス_1196" data-name="パス 1196" d="M63.567,80.291c-.178-.121-.356-.245-.535-.368h0q.267.185.535.367" transform="translate(-38.772 -49.162)" fill="#222"/>
        <path id="パス_1197" data-name="パス 1197" d="M68.22,52.809V42.433l3.547,10.376h4.341l3.521-10.3v10.3h5.188V34.148H78.569L73.99,46.271,69.305,34.148H63.032V50.607q1.652,1.171,3.323,2.2Z" transform="translate(-38.772 -21.005)" fill="#222"/>
        <path id="パス_1198" data-name="パス 1198" d="M122.795,34.148v4.129h4.923V52.809h5.188V38.278h4.977V34.148Z" transform="translate(-75.533 -21.005)" fill="#222"/>
        <path id="パス_1199" data-name="パス 1199" d="M54.306,34.875a5.353,5.353,0,0,1-.956,3.451c-.064.086-.132.169-.2.251-.022.025-.044.049-.066.073q-.076.085-.156.166l-.077.076q-.086.083-.176.16l-.065.057c-.083.07-.169.137-.257.2l-.035.024q-.117.084-.24.161l-.086.053q-.1.062-.21.121l-.092.05q-.122.064-.249.122l-.06.028q-.16.072-.327.137l-.065.023c-.09.033-.182.066-.275.1l-.107.033c-.085.026-.171.051-.258.075l-.107.028c-.107.027-.216.053-.327.077l-.044.01c-.126.026-.256.05-.386.071l-.1.015c-.1.015-.2.028-.3.041l-.133.015q-.145.016-.294.028l-.125.01q-.418.03-.86.031h-.042l-.084,0q-.181,0-.366-.007l-.139,0c-.16-.006-.322-.015-.487-.026h0c-.166-.012-.333-.027-.5-.043l-.149-.016q-.2-.021-.394-.046l-.139-.018q-.26-.035-.525-.077l-.09-.015q-.225-.037-.453-.079l-.167-.032q-.214-.042-.431-.087l-.129-.027q-.275-.059-.554-.127l-.143-.035q-.218-.053-.438-.111l-.179-.047c-.164-.044-.329-.09-.5-.137l-.089-.025q-.289-.084-.582-.175l-.175-.055q-.221-.069-.443-.143l-.183-.06q-.3-.1-.6-.207l-.066-.024q-.273-.1-.548-.2l-.2-.074c-.153-.059-.307-.118-.461-.179l-.176-.069q-.307-.122-.617-.252l-.143-.06q-.248-.105-.5-.214l-.205-.09q-.25-.111-.5-.226l-.146-.066q-.316-.145-.634-.3l-.181-.087q-.242-.117-.485-.237l-.2-.1q-.29-.145-.582-.3l-.075-.039q-.324-.168-.65-.343l-.2-.107q-.245-.133-.491-.269l-.194-.108q-.328-.184-.658-.373l-.1-.055q-.288-.167-.576-.339l-.205-.122q-.257-.155-.516-.314l-.167-.1q-.332-.206-.665-.417l-.152-.1-.4-.257-.131-.086-.205-.135q-.281-.186-.562-.375l-.117-.079q-.267-.182-.535-.367l-.134-.093-.179-.125q-.257-.181-.515-.366l-.194-.139q-.337-.243-.672-.492-1.1-.813-2.13-1.651-.517-.418-1.018-.841-.251-.211-.5-.424-.435-.375-.855-.752l-.114-.1q-.476-.428-.935-.859t-.9-.864c-1.179-1.158-2.263-2.325-3.24-3.484q-.361-.428-.7-.854t-.671-.86q-.6-.8-1.135-1.582c-.408-.6-.784-1.2-1.124-1.784q-.12-.2-.233-.409-.341-.611-.63-1.207-.1-.2-.187-.395c-.052-.112-.1-.224-.15-.335-.065-.148-.128-.3-.188-.443q-.157-.384-.289-.76t-.24-.741a11.93,11.93,0,0,1-.329-1.419q-.057-.344-.087-.675t-.034-.65q0-.318.02-.623t.075-.595c.017-.1.037-.192.059-.286a5.062,5.062,0,0,1,.26-.812,4.565,4.565,0,0,1,.548-.967c.064-.087.132-.169.2-.251l.066-.074q.076-.085.156-.166l.077-.076q.085-.082.176-.16l.066-.058c.083-.07.169-.137.257-.2l.035-.024q.117-.084.239-.161l.087-.053q.1-.062.209-.121l.093-.05q.121-.064.248-.122L13,5.365c.106-.048.216-.094.327-.136L13.4,5.2c.09-.033.182-.066.275-.1l.107-.034c.085-.026.17-.051.257-.074l.108-.029q.16-.041.325-.076l.045-.01q.19-.039.386-.071L15,4.8q.145-.023.3-.041l.134-.015c.1-.011.194-.02.293-.028l.126-.01c.139-.01.279-.018.421-.023h0c.143-.005.289-.007.436-.008h.042l.085,0c.12,0,.242,0,.364.007l.14,0c.16.007.321.015.485.026h.006c.165.012.333.027.5.043l.15.016c.129.014.26.029.392.046l.141.018q.259.035.523.077l.093.016q.223.037.45.079l.168.032q.214.041.43.087l.13.027q.274.059.554.127l.144.035q.217.053.436.11l.18.048q.245.066.494.137l.09.026q.289.083.581.174l.177.056c.146.046.293.094.441.142l.184.061q.3.1.6.206l.07.025q.271.1.545.2l.2.075q.23.087.461.179l.176.069q.307.122.616.251l.145.062q.247.1.5.212l.206.09q.249.11.5.225l.147.067q.316.145.634.3l.182.088q.241.117.484.237l.206.1q.29.145.583.3l.074.038c.216.112.433.227.65.343l.2.107q.246.133.493.27l.193.107q.329.184.659.374l.094.055q.288.167.577.339l.205.123q.258.155.517.314l.165.1q.333.206.666.418l.149.1q.266.17.533.345l.2.134q.282.186.563.376l.115.077q.335.227.669.461l.178.125q.258.182.516.367l.193.139q.337.243.673.492l.412.309c-.226-.179-.455-.357-.685-.535q-.538-.416-1.089-.827-.367-.272-.735-.537l-.216-.155q-.275-.2-.551-.391l-.211-.148q-.368-.256-.737-.507l-.044-.03q-.349-.236-.7-.464l-.214-.139q-.282-.184-.564-.364l-.2-.125q-.371-.236-.742-.464l-.063-.038q-.34-.208-.679-.41l-.2-.121q-.29-.171-.581-.339l-.174-.1q-.373-.214-.745-.42l-.073-.04q-.334-.184-.667-.362l-.191-.1q-.3-.16-.6-.314l-.146-.076q-.372-.191-.744-.374l-.08-.039q-.327-.16-.652-.315l-.179-.085q-.307-.144-.613-.284L25.845,6.1q-.369-.167-.735-.326l-.087-.037q-.318-.137-.633-.268L24.224,5.4q-.312-.128-.622-.251l-.091-.036q-.361-.141-.719-.274L22.7,4.808q-.3-.113-.607-.219l-.159-.055q-.312-.109-.621-.211L21.244,4.3q-.35-.114-.7-.22l-.105-.032q-.288-.087-.572-.168l-.154-.043q-.307-.086-.61-.165l-.049-.013q-.333-.087-.662-.164l-.119-.027q-.266-.062-.528-.118L17.6,3.319q-.3-.062-.589-.116L16.975,3.2c-.209-.038-.415-.074-.62-.106l-.134-.02q-.24-.037-.476-.068l-.155-.02c-.187-.023-.373-.045-.556-.063l-.027,0c-.193-.019-.384-.035-.572-.048l-.147-.01c-.142-.009-.282-.016-.422-.022l-.157-.006c-.174-.005-.346-.009-.515-.009h-.024c-.173,0-.343,0-.511.009l-.154.007q-.18.008-.355.02l-.164.012c-.131.01-.261.023-.389.037l-.1.01c-.155.018-.307.04-.457.064L10.9,3c-.105.018-.21.037-.313.058l-.158.033c-.107.023-.213.048-.318.075L9.991,3.2q-.206.055-.4.118l-.12.04q-.144.048-.283.1l-.139.054q-.137.054-.269.113l-.114.05q-.181.083-.353.175l-.085.047q-.133.073-.261.151l-.114.072c-.078.05-.155.1-.23.155-.032.023-.065.045-.1.068-.1.076-.2.154-.3.235l-.043.038q-.124.107-.241.22l-.086.086c-.065.065-.127.132-.189.2l-.077.086c-.082.1-.163.195-.239.3h0a5.605,5.605,0,0,0-.863,1.728,6.457,6.457,0,0,0-.16.647,7.681,7.681,0,0,0-.135,1.39q0,.182,0,.366c0,.134.012.27.022.407q.038.524.133,1.073c.008.043.016.087.023.132q.058.314.134.636c.039.167.08.334.126.5s.1.366.162.551.121.378.188.569q.13.374.281.754.1.256.213.517.277.647.609,1.311.111.221.227.444.227.432.476.87.167.293.343.588.139.232.283.465.348.56.729,1.127c.138.205.281.411.426.617q.455.648.952,1.3.45.591.936,1.186.216.266.44.532c.2.236.4.472.6.708q.636.73,1.32,1.459.456.486.933.971.359.365.73.728.29.285.586.568l.159.152q.274.26.555.52.5.46,1.01.916,1.645,1.46,3.465,2.87.253.2.51.392.3.227.6.453l0,0q.366.271.732.535l.217.156q.275.2.55.39l.211.148q.368.256.736.506l.05.033q.345.233.69.46l.219.143q.278.182.556.359l.2.129q.369.234.737.461l.079.048q.331.2.662.4l.216.128q.282.167.564.329l.19.11q.368.21.735.414l.1.055q.319.176.636.346l.211.112q.286.152.57.3l.172.089q.365.187.728.366l.117.057q.306.151.61.3l.206.1q.287.135.572.265l.156.072q.358.162.714.316l.132.056q.292.126.582.246l.2.083q.286.117.57.229l.138.055q.349.137.7.265l.142.052q.277.1.552.2l.2.069q.282.1.562.19l.121.04q.337.11.67.212l.151.045q.261.079.52.153l.19.053q.278.078.553.15l.1.027q.322.083.639.158l.157.036q.244.057.484.108l.183.039q.271.056.539.106l.08.015c.2.037.4.071.6.1l.16.024q.226.034.448.064l.174.023q.265.033.526.06l.054.006c.191.019.378.034.564.047l.157.01c.139.008.277.016.413.021l.162.006c.174.005.346.009.515.009h.022c.174,0,.344,0,.513-.009l.149-.007c.122-.005.243-.012.363-.02l.156-.011c.137-.011.272-.024.405-.038l.08-.008q.235-.028.463-.064l.133-.023c.11-.019.219-.039.326-.06l.149-.031c.112-.025.222-.051.331-.078l.105-.026c.139-.037.276-.077.41-.119l.111-.037c.1-.033.2-.067.293-.1l.134-.052c.094-.037.186-.076.276-.116l.107-.047q.182-.084.356-.176l.08-.045q.136-.074.266-.154l.111-.07c.079-.051.157-.1.233-.157l.094-.067c.1-.076.2-.154.3-.236l.04-.036q.125-.107.243-.222c.029-.028.057-.057.085-.085q.1-.1.19-.2c.025-.028.051-.057.076-.086.083-.1.164-.2.24-.3a5.409,5.409,0,0,0,.363-.557,5.568,5.568,0,0,0,.293-.6,7.88,7.88,0,0,0,.365-4.323" transform="translate(-3.191 -1.735)" fill="#222"/>
        <path id="パス_1200" data-name="パス 1200" d="M86.087,27.507l-.115-.077.115.077" transform="translate(-52.883 -16.873)" fill="#222"/>
        <path id="パス_1201" data-name="パス 1201" d="M82.355,25.054l-.149-.1.149.1" transform="translate(-50.567 -15.352)" fill="#222"/>
        <path id="パス_1202" data-name="パス 1202" d="M23.223,56.527c-.206-.236-.406-.472-.6-.708.2.236.4.472.6.708" transform="translate(-13.913 -34.335)" fill="#222"/>
        <path id="パス_1203" data-name="パス 1203" d="M76.519,21.506l-.094-.055.094.055" transform="translate(-47.011 -13.195)" fill="#222"/>
        <path id="パス_1204" data-name="パス 1204" d="M66.937,16.441l-.182-.088.182.088" transform="translate(-41.062 -10.059)" fill="#222"/>
        <path id="パス_1205" data-name="パス 1205" d="M90,30.244l-.193-.139.193.139" transform="translate(-55.245 -18.518)" fill="#222"/>
        <path id="パス_1206" data-name="パス 1206" d="M25.509,59.117q-.684-.729-1.32-1.459.636.73,1.32,1.459" transform="translate(-14.879 -35.467)" fill="#222"/>
        <path id="パス_1207" data-name="パス 1207" d="M72.614,19.33l-.2-.107.2.107" transform="translate(-44.545 -11.824)" fill="#222"/>
        <path id="パス_1208" data-name="パス 1208" d="M92.037,31.692c-.226-.179-.455-.357-.685-.535.23.178.459.356.685.535h0" transform="translate(-56.192 -19.165)" fill="#222"/>
        <path id="パス_1209" data-name="パス 1209" d="M78.374,22.6l-.205-.123.205.123" transform="translate(-48.083 -13.825)" fill="#222"/>
        <path id="パス_1210" data-name="パス 1210" d="M19.98,52.543q-.484-.594-.937-1.186.451.591.937,1.186" transform="translate(-11.714 -31.591)" fill="#222"/>
        <path id="パス_1211" data-name="パス 1211" d="M80.21,23.711l-.166-.1.166.1" transform="translate(-49.237 -14.522)" fill="#222"/>
        <path id="パス_1212" data-name="パス 1212" d="M13.117,42.7q-.145-.233-.283-.465.139.232.283.465" transform="translate(-7.894 -25.98)" fill="#222"/>
        <path id="パス_1213" data-name="パス 1213" d="M68.691,17.3l-.206-.1.206.1" transform="translate(-42.126 -10.577)" fill="#222"/>
        <path id="パス_1214" data-name="パス 1214" d="M88.187,28.953l-.177-.125.177.125" transform="translate(-54.137 -17.733)" fill="#222"/>
        <path id="パス_1215" data-name="パス 1215" d="M74.4,20.308l-.193-.107.193.107" transform="translate(-45.649 -12.426)" fill="#222"/>
        <path id="パス_1216" data-name="パス 1216" d="M17.522,49.277q-.5-.654-.952-1.3.456.648.952,1.3" transform="translate(-10.193 -29.511)" fill="#222"/>
        <path id="パス_1217" data-name="パス 1217" d="M84.182,26.238l-.2-.134.2.134" transform="translate(-51.657 -16.057)" fill="#222"/>
        <path id="パス_1218" data-name="パス 1218" d="M70.608,18.27l-.074-.038.074.038" transform="translate(-43.387 -11.215)" fill="#222"/>
        <path id="パス_1219" data-name="パス 1219" d="M80.232,23.21q.348.229.7.464-.348-.236-.7-.464" transform="translate(-49.352 -14.277)" fill="#222"/>
        <path id="パス_1220" data-name="パス 1220" d="M37.829,4.2q.263.056.528.117-.266-.062-.528-.117" transform="translate(-23.269 -2.583)" fill="#222"/>
        <path id="パス_1221" data-name="パス 1221" d="M39.51,4.575q.328.077.662.164-.334-.087-.662-.164" transform="translate(-24.303 -2.814)" fill="#222"/>
        <path id="パス_1222" data-name="パス 1222" d="M14.507,4.722c.089-.039.178-.077.269-.113-.091.036-.181.074-.269.113" transform="translate(-8.924 -2.835)" fill="#222"/>
        <path id="パス_1223" data-name="パス 1223" d="M35.9,3.813c.194.036.391.075.588.116-.2-.041-.394-.08-.588-.116" transform="translate(-22.085 -2.345)" fill="#222"/>
        <path id="パス_1224" data-name="パス 1224" d="M16.616,3.917q.2-.063.4-.118-.206.055-.4.118" transform="translate(-10.221 -2.337)" fill="#222"/>
        <path id="パス_1225" data-name="パス 1225" d="M41.356,5.033q.3.079.61.165-.307-.086-.61-.165" transform="translate(-25.439 -3.096)" fill="#222"/>
        <path id="パス_1226" data-name="パス 1226" d="M15.568,4.31c.093-.035.187-.068.283-.1-.1.032-.191.065-.283.1" transform="translate(-9.576 -2.59)" fill="#222"/>
        <path id="パス_1227" data-name="パス 1227" d="M49.1,7.416q.3.106.607.219-.3-.113-.607-.219" transform="translate(-30.205 -4.562)" fill="#222"/>
        <path id="パス_1228" data-name="パス 1228" d="M11.5,6.342c.075-.053.152-.105.23-.155-.078.05-.155.1-.23.155" transform="translate(-7.076 -3.806)" fill="#222"/>
        <path id="パス_1229" data-name="パス 1229" d="M45.1,6.1q.345.106.7.22-.35-.114-.7-.22" transform="translate(-27.741 -3.749)" fill="#222"/>
        <path id="パス_1230" data-name="パス 1230" d="M12.4,5.759c.085-.052.172-.1.261-.151-.089.049-.176.1-.261.151" transform="translate(-7.624 -3.45)" fill="#222"/>
        <path id="パス_1231" data-name="パス 1231" d="M43.34,5.576q.284.081.572.168-.287-.087-.572-.168" transform="translate(-26.659 -3.43)" fill="#222"/>
        <path id="パス_1232" data-name="パス 1232" d="M13.294,5.206q.173-.092.353-.175-.181.083-.353.175" transform="translate(-8.177 -3.095)" fill="#222"/>
        <path id="パス_1233" data-name="パス 1233" d="M47.079,6.725q.309.1.621.211-.312-.109-.621-.211" transform="translate(-28.959 -4.137)" fill="#222"/>
        <path id="パス_1234" data-name="パス 1234" d="M20.4,3.128c.15-.023.3-.045.457-.063-.155.018-.307.04-.457.063" transform="translate(-12.546 -1.885)" fill="#222"/>
        <path id="パス_1235" data-name="パス 1235" d="M25.979,2.821c.17,0,.342,0,.516.009-.174-.005-.346-.009-.516-.009" transform="translate(-15.98 -1.735)" fill="#222"/>
        <path id="パス_1236" data-name="パス 1236" d="M27.728,2.861c.139.006.28.013.422.022-.142-.009-.283-.016-.422-.022" transform="translate(-17.056 -1.76)" fill="#222"/>
        <path id="パス_1237" data-name="パス 1237" d="M34.2,3.521c.205.033.411.067.62.106-.209-.038-.415-.074-.62-.106" transform="translate(-21.037 -2.166)" fill="#222"/>
        <path id="パス_1238" data-name="パス 1238" d="M24.591,2.829c.168-.005.338-.009.511-.009-.172,0-.343,0-.511.009" transform="translate(-15.126 -1.735)" fill="#222"/>
        <path id="パス_1239" data-name="パス 1239" d="M23.267,2.881c.117-.008.236-.015.355-.02-.12.005-.238.012-.355.02" transform="translate(-14.312 -1.76)" fill="#222"/>
        <path id="パス_1240" data-name="パス 1240" d="M21.83,2.979c.129-.014.258-.027.39-.037-.132.011-.261.023-.39.037" transform="translate(-13.428 -1.81)" fill="#222"/>
        <path id="パス_1241" data-name="パス 1241" d="M17.973,3.6q.156-.04.317-.075c-.107.023-.212.048-.317.075" transform="translate(-11.056 -2.171)" fill="#222"/>
        <path id="パス_1242" data-name="パス 1242" d="M32.613,3.291q.236.031.476.068-.24-.037-.476-.068" transform="translate(-20.061 -2.024)" fill="#222"/>
        <path id="パス_1243" data-name="パス 1243" d="M29.207,2.942c.189.013.379.029.572.048-.193-.019-.383-.034-.572-.048" transform="translate(-17.966 -1.81)" fill="#222"/>
        <path id="パス_1244" data-name="パス 1244" d="M30.765,3.074c.184.018.369.04.556.064-.187-.023-.373-.045-.556-.064" transform="translate(-18.924 -1.891)" fill="#222"/>
        <path id="パス_1245" data-name="パス 1245" d="M19.209,3.35q.155-.031.313-.058-.158.027-.313.058" transform="translate(-11.816 -2.025)" fill="#222"/>
        <path id="パス_1246" data-name="パス 1246" d="M9.141,35.2q-.333-.664-.609-1.311.277.647.609,1.311" transform="translate(-5.248 -20.845)" fill="#222"/>
        <path id="パス_1247" data-name="パス 1247" d="M10.474,7c.1-.082.2-.16.3-.235-.1.075-.2.154-.3.235" transform="translate(-6.443 -4.163)" fill="#222"/>
        <path id="パス_1248" data-name="パス 1248" d="M69.416,16.66q.372.206.745.42-.373-.214-.745-.42" transform="translate(-42.699 -10.248)" fill="#222"/>
        <path id="パス_1249" data-name="パス 1249" d="M7.529,31.339q-.151-.381-.281-.754.13.374.281.754" transform="translate(-4.458 -18.813)" fill="#222"/>
        <path id="パス_1250" data-name="パス 1250" d="M71.8,18.012q.29.167.581.339-.29-.172-.581-.339" transform="translate(-44.169 -11.08)" fill="#222"/>
        <path id="パス_1251" data-name="パス 1251" d="M67.494,15.615q.333.178.667.362-.334-.184-.667-.362" transform="translate(-41.517 -9.605)" fill="#222"/>
        <path id="パス_1252" data-name="パス 1252" d="M6.5,28.226c-.057-.185-.112-.369-.162-.551.05.182.1.366.162.551" transform="translate(-3.899 -17.023)" fill="#222"/>
        <path id="パス_1253" data-name="パス 1253" d="M11.182,39.317q-.249-.438-.476-.87.226.432.476.87" transform="translate(-6.585 -23.65)" fill="#222"/>
        <path id="パス_1254" data-name="パス 1254" d="M84.62,26.193q.275.193.551.391-.275-.2-.551-.391" transform="translate(-52.051 -16.112)" fill="#222"/>
        <path id="パス_1255" data-name="パス 1255" d="M75.774,20.373q.371.228.742.464-.371-.236-.742-.464" transform="translate(-46.61 -12.532)" fill="#222"/>
        <path id="パス_1256" data-name="パス 1256" d="M65.439,14.535q.3.155.6.314-.3-.159-.6-.314" transform="translate(-40.253 -8.941)" fill="#222"/>
        <path id="パス_1257" data-name="パス 1257" d="M82.157,24.493q.368.249.737.507-.368-.256-.737-.507" transform="translate(-50.536 -15.066)" fill="#222"/>
        <path id="パス_1258" data-name="パス 1258" d="M86.612,27.611q.368.266.735.537-.367-.273-.735-.537" transform="translate(-53.277 -16.984)" fill="#222"/>
        <path id="パス_1259" data-name="パス 1259" d="M78.212,21.9q.282.18.564.364-.282-.184-.564-.364" transform="translate(-48.11 -13.473)" fill="#222"/>
        <path id="パス_1260" data-name="パス 1260" d="M73.845,19.208q.339.2.679.41-.34-.208-.679-.41" transform="translate(-45.424 -11.815)" fill="#222"/>
        <path id="パス_1261" data-name="パス 1261" d="M55.081,9.708q.315.13.633.267-.318-.137-.633-.267" transform="translate(-33.881 -5.972)" fill="#222"/>
        <path id="パス_1262" data-name="パス 1262" d="M53.031,8.88q.31.122.622.25-.312-.128-.622-.25" transform="translate(-32.62 -5.462)" fill="#222"/>
        <path id="パス_1263" data-name="パス 1263" d="M9.022,8.473q.092-.1.189-.2-.1.1-.189.2" transform="translate(-5.55 -5.088)" fill="#222"/>
        <path id="パス_1264" data-name="パス 1264" d="M50.926,8.073q.358.133.72.274-.362-.141-.72-.274" transform="translate(-31.326 -4.966)" fill="#222"/>
        <path id="パス_1265" data-name="パス 1265" d="M9.736,7.7q.117-.113.241-.22-.124.107-.241.22" transform="translate(-5.989 -4.599)" fill="#222"/>
        <path id="パス_1266" data-name="パス 1266" d="M56.95,10.5q.366.159.735.326-.369-.167-.735-.326" transform="translate(-35.031 -6.459)" fill="#222"/>
        <path id="パス_1267" data-name="パス 1267" d="M8.2,9.316c.076-.1.157-.2.239-.3-.082.1-.163.195-.239.3" transform="translate(-5.045 -5.548)" fill="#222"/>
        <path id="パス_1268" data-name="パス 1268" d="M63.127,13.366q.371.183.744.374-.373-.191-.744-.374" transform="translate(-38.831 -8.222)" fill="#222"/>
        <path id="パス_1269" data-name="パス 1269" d="M5.222,20.934c-.01-.137-.018-.273-.022-.407,0,.134.012.27.022.407" transform="translate(-3.199 -12.627)" fill="#222"/>
        <path id="パス_1270" data-name="パス 1270" d="M59.168,11.487q.305.139.613.284-.308-.145-.613-.284" transform="translate(-36.395 -7.066)" fill="#222"/>
        <path id="パス_1271" data-name="パス 1271" d="M5.626,24.5c-.008-.044-.016-.088-.023-.132.007.044.015.088.023.132" transform="translate(-3.447 -14.992)" fill="#222"/>
        <path id="パス_1272" data-name="パス 1272" d="M61.226,12.446q.325.155.652.315-.327-.161-.652-.315" transform="translate(-37.661 -7.656)" fill="#222"/>
        <path id="パス_1273" data-name="パス 1273" d="M6.137,26.872c-.046-.169-.087-.337-.126-.5.039.166.08.334.126.5" transform="translate(-3.697 -16.22)" fill="#222"/>
        <path id="パス_1274" data-name="パス 1274" d="M112.948,107.281c-.169.005-.339.009-.513.009.173,0,.344,0,.513-.009" transform="translate(-69.161 -65.991)" fill="#222"/>
        <path id="パス_1275" data-name="パス 1275" d="M117.227,106.9c-.152.024-.306.046-.463.064.157-.018.311-.04.463-.064" transform="translate(-71.824 -65.753)" fill="#222"/>
        <path id="パス_1276" data-name="パス 1276" d="M118.637,106.679q-.161.032-.326.06.165-.028.326-.06" transform="translate(-72.775 -65.62)" fill="#222"/>
        <path id="パス_1277" data-name="パス 1277" d="M114.518,107.212c-.12.008-.241.015-.363.02.122,0,.243-.012.363-.02" transform="translate(-70.219 -65.948)" fill="#222"/>
        <path id="パス_1278" data-name="パス 1278" d="M115.908,107.083c-.134.015-.268.028-.405.038.137-.011.272-.023.405-.038" transform="translate(-71.048 -65.869)" fill="#222"/>
        <path id="パス_1279" data-name="パス 1279" d="M123.417,105.218c-.091.04-.183.079-.276.116.094-.037.186-.076.276-.116" transform="translate(-75.746 -64.722)" fill="#222"/>
        <path id="パス_1280" data-name="パス 1280" d="M119.876,106.4c-.109.028-.219.054-.331.078.112-.024.222-.05.331-.078" transform="translate(-73.535 -65.446)" fill="#222"/>
        <path id="パス_1281" data-name="パス 1281" d="M124.493,104.639q-.174.092-.356.176.182-.084.356-.176" transform="translate(-76.359 -64.366)" fill="#222"/>
        <path id="パス_1282" data-name="パス 1282" d="M121.089,106.018q-.2.064-.41.119.209-.055.41-.119" transform="translate(-74.232 -65.214)" fill="#222"/>
        <path id="パス_1283" data-name="パス 1283" d="M122.326,105.653q-.144.054-.293.1.148-.049.293-.1" transform="translate(-75.065 -64.989)" fill="#222"/>
        <path id="パス_1284" data-name="パス 1284" d="M103.167,106.437c-.2-.032-.4-.066-.6-.1.2.037.4.071.6.1" transform="translate(-63.089 -65.408)" fill="#222"/>
        <path id="パス_1285" data-name="パス 1285" d="M101.494,106.123c-.178-.033-.358-.069-.539-.106.181.037.361.073.539.106" transform="translate(-62.099 -65.213)" fill="#222"/>
        <path id="パス_1286" data-name="パス 1286" d="M104.995,106.728q-.222-.029-.448-.064.226.034.448.064" transform="translate(-64.309 -65.611)" fill="#222"/>
        <path id="パス_1287" data-name="パス 1287" d="M99.706,105.745q-.241-.051-.484-.108.244.057.484.108" transform="translate(-61.033 -64.979)" fill="#222"/>
        <path id="パス_1288" data-name="パス 1288" d="M106.69,106.949q-.26-.027-.526-.06.266.034.526.06" transform="translate(-65.304 -65.75)" fill="#222"/>
        <path id="パス_1289" data-name="パス 1289" d="M109.958,107.23c-.137-.005-.274-.013-.413-.021.139.008.276.016.413.021" transform="translate(-67.383 -65.946)" fill="#222"/>
        <path id="パス_1290" data-name="パス 1290" d="M97.791,105.291q-.318-.075-.639-.158.322.083.639.158" transform="translate(-59.76 -64.669)" fill="#222"/>
        <path id="パス_1291" data-name="パス 1291" d="M108.235,107.108q-.279-.02-.564-.047.285.028.564.047" transform="translate(-66.231 -65.855)" fill="#222"/>
        <path id="パス_1292" data-name="パス 1292" d="M111.554,107.289c-.17,0-.342,0-.515-.009.174.005.346.009.515.009" transform="translate(-68.302 -65.99)" fill="#222"/>
        <path id="パス_1293" data-name="パス 1293" d="M123.188,99.78l.107-.033-.107.033" transform="translate(-75.775 -61.356)" fill="#222"/>
        <path id="パス_1294" data-name="パス 1294" d="M124.181,99.459l.065-.024-.065.024" transform="translate(-76.386 -61.165)" fill="#222"/>
        <path id="パス_1295" data-name="パス 1295" d="M126,98.61l.092-.05-.092.05" transform="translate(-77.507 -60.626)" fill="#222"/>
        <path id="パス_1296" data-name="パス 1296" d="M122.24,100.056l.107-.028-.107.028" transform="translate(-75.192 -61.529)" fill="#222"/>
        <path id="パス_1297" data-name="パス 1297" d="M125.2,99.035l.06-.029-.06.029" transform="translate(-77.013 -60.901)" fill="#222"/>
        <path id="パス_1298" data-name="パス 1298" d="M118.89,100.671l.133-.015-.133.015" transform="translate(-73.132 -61.915)" fill="#222"/>
        <path id="パス_1299" data-name="パス 1299" d="M121.277,100.31l.044-.01-.044.01" transform="translate(-74.6 -61.697)" fill="#222"/>
        <path id="パス_1300" data-name="パス 1300" d="M120.008,100.526l.1-.015-.1.015" transform="translate(-73.819 -61.826)" fill="#222"/>
        <path id="パス_1301" data-name="パス 1301" d="M128.229,102.075c-.079.076-.159.15-.243.222.084-.072.164-.146.243-.222" transform="translate(-78.727 -62.788)" fill="#222"/>
        <path id="パス_1302" data-name="パス 1302" d="M125.537,104.122c-.087.053-.176.1-.266.154.09-.05.179-.1.266-.154" transform="translate(-77.057 -64.048)" fill="#222"/>
        <path id="パス_1303" data-name="パス 1303" d="M127.4,102.746c-.1.082-.2.16-.3.236.1-.076.2-.154.3-.236" transform="translate(-78.182 -63.201)" fill="#222"/>
        <path id="パス_1304" data-name="パス 1304" d="M129.03,101.331c-.062.069-.125.136-.19.2.065-.065.128-.133.19-.2" transform="translate(-79.252 -62.331)" fill="#222"/>
        <path id="パス_1305" data-name="パス 1305" d="M126.789,98.161l.086-.053-.086.053" transform="translate(-77.99 -60.348)" fill="#222"/>
        <path id="パス_1306" data-name="パス 1306" d="M126.483,103.533q-.114.081-.232.157.118-.076.232-.157" transform="translate(-77.66 -63.685)" fill="#222"/>
        <path id="パス_1307" data-name="パス 1307" d="M127.636,97.652l.035-.024-.035.024" transform="translate(-78.511 -60.053)" fill="#222"/>
        <path id="パス_1308" data-name="パス 1308" d="M128.395,97.014l.065-.057-.065.057" transform="translate(-78.978 -59.64)" fill="#222"/>
        <path id="パス_1309" data-name="パス 1309" d="M117.8,100.778l.125-.01-.125.01" transform="translate(-72.462 -61.984)" fill="#222"/>
        <path id="パス_1310" data-name="パス 1310" d="M129.627,95.8l.066-.073-.066.073" transform="translate(-79.736 -58.881)" fill="#222"/>
        <path id="パス_1311" data-name="パス 1311" d="M131.859,90.427a7.88,7.88,0,0,0,.365-4.323,7.88,7.88,0,0,1-.365,4.323" transform="translate(-81.109 -52.964)" fill="#222"/>
        <path id="パス_1312" data-name="パス 1312" d="M50.57,81.658q-.367-.265-.732-.535.366.271.732.535" transform="translate(-30.656 -49.9)" fill="#222"/>
        <path id="パス_1313" data-name="パス 1313" d="M129.531,99.741c.083-.1.164-.2.24-.3a5.406,5.406,0,0,0,.363-.557,5.406,5.406,0,0,1-.363.557c-.076.1-.157.2-.24.3" transform="translate(-79.677 -60.827)" fill="#222"/>
        <path id="パス_1314" data-name="パス 1314" d="M129.1,96.344l-.077.076.077-.076" transform="translate(-79.364 -59.263)" fill="#222"/>
        <path id="パス_1315" data-name="パス 1315" d="M115.364,100.874h-.126l.084,0h.042" transform="translate(-70.885 -62.049)" fill="#222"/>
        <path id="パス_1316" data-name="パス 1316" d="M57.014,86.177q-.345-.227-.69-.46.345.233.69.46" transform="translate(-34.646 -52.726)" fill="#222"/>
        <path id="パス_1317" data-name="パス 1317" d="M52.854,83.308q-.275-.193-.55-.39.275.2.55.39" transform="translate(-32.173 -51.005)" fill="#222"/>
        <path id="パス_1318" data-name="パス 1318" d="M55.019,84.823q-.368-.249-.736-.506.368.256.736.506" transform="translate(-33.391 -51.865)" fill="#222"/>
        <path id="パス_1319" data-name="パス 1319" d="M28.076,46.459q-.6-.8-1.135-1.582.531.785,1.135,1.582" transform="translate(-16.572 -27.605)" fill="#222"/>
        <path id="パス_1320" data-name="パス 1320" d="M35.126,7.636h.127l-.085,0h-.042" transform="translate(-21.607 -4.696)" fill="#222"/>
        <path id="パス_1321" data-name="パス 1321" d="M21.472,12.047l.077-.076-.077.076" transform="translate(-13.208 -7.364)" fill="#222"/>
        <path id="パス_1322" data-name="パス 1322" d="M47.8,67.989q-.435-.375-.855-.752.421.378.855.752" transform="translate(-28.874 -41.359)" fill="#222"/>
        <path id="パス_1323" data-name="パス 1323" d="M20.6,33.441c-.065-.148-.128-.3-.188-.443.06.147.123.294.188.443" transform="translate(-12.558 -20.298)" fill="#222"/>
        <path id="パス_1324" data-name="パス 1324" d="M30.041,63.972q.359.364.73.728-.37-.363-.73-.728" transform="translate(-18.479 -39.35)" fill="#222"/>
        <path id="パス_1325" data-name="パス 1325" d="M32.337,52.077h0q-.361-.428-.7-.854.342.426.7.854" transform="translate(-19.459 -31.508)" fill="#222"/>
        <path id="パス_1326" data-name="パス 1326" d="M59.242,87.642c-.185-.118-.371-.238-.556-.359q.278.181.556.359" transform="translate(-36.099 -53.69)" fill="#222"/>
        <path id="パス_1327" data-name="パス 1327" d="M30.562,49.848q-.346-.431-.671-.86.325.428.671.86" transform="translate(-18.387 -30.133)" fill="#222"/>
        <path id="パス_1328" data-name="パス 1328" d="M67.749,92.8q-.367-.2-.735-.414.368.211.735.414" transform="translate(-41.222 -56.826)" fill="#222"/>
        <path id="パス_1329" data-name="パス 1329" d="M61.394,89.012q-.368-.226-.737-.461.369.234.737.461" transform="translate(-37.311 -54.47)" fill="#222"/>
        <path id="パス_1330" data-name="パス 1330" d="M88.316,102.374q-.275-.1-.552-.2.277.1.552.2" transform="translate(-53.985 -62.85)" fill="#222"/>
        <path id="パス_1331" data-name="パス 1331" d="M84.321,100.843q-.284-.112-.57-.229.286.117.57.229" transform="translate(-51.517 -61.89)" fill="#222"/>
        <path id="パス_1332" data-name="パス 1332" d="M82.3,100.006q-.29-.121-.582-.246.292.125.582.246" transform="translate(-50.266 -61.364)" fill="#222"/>
        <path id="パス_1333" data-name="パス 1333" d="M92.151,103.681q-.333-.1-.67-.212.337.11.67.212" transform="translate(-56.272 -63.646)" fill="#222"/>
        <path id="パス_1334" data-name="パス 1334" d="M94.133,104.291q-.259-.074-.52-.153.261.079.52.153" transform="translate(-57.583 -64.057)" fill="#222"/>
        <path id="パス_1335" data-name="パス 1335" d="M80.235,99.107q-.356-.154-.714-.316.358.162.714.316" transform="translate(-48.915 -60.768)" fill="#222"/>
        <path id="パス_1336" data-name="パス 1336" d="M90.269,103.06q-.279-.092-.562-.19.282.1.562.19" transform="translate(-55.181 -63.277)" fill="#222"/>
        <path id="パス_1337" data-name="パス 1337" d="M86.284,101.616q-.346-.129-.7-.265.349.137.7.265" transform="translate(-52.647 -62.343)" fill="#222"/>
        <path id="パス_1338" data-name="パス 1338" d="M69.82,93.946q-.318-.17-.636-.346.319.175.636.346" transform="translate(-42.556 -57.575)" fill="#222"/>
        <path id="パス_1339" data-name="パス 1339" d="M96.009,104.825q-.275-.072-.553-.15.278.078.553.15" transform="translate(-58.717 -64.388)" fill="#222"/>
        <path id="パス_1340" data-name="パス 1340" d="M78.2,98.182q-.285-.13-.572-.265.286.135.572.265" transform="translate(-47.752 -60.231)" fill="#222"/>
        <path id="パス_1341" data-name="パス 1341" d="M63.44,90.273q-.33-.2-.662-.4.331.2.662.4" transform="translate(-38.616 -55.283)" fill="#222"/>
        <path id="パス_1342" data-name="パス 1342" d="M65.621,91.571q-.282-.162-.564-.329.282.166.564.329" transform="translate(-40.018 -56.125)" fill="#222"/>
        <path id="パス_1343" data-name="パス 1343" d="M71.956,95.089q-.285-.147-.57-.3.286.151.57.3" transform="translate(-43.911 -58.308)" fill="#222"/>
        <path id="パス_1344" data-name="パス 1344" d="M64.873,15.475l-.147-.067.147.067" transform="translate(-39.814 -9.478)" fill="#222"/>
        <path id="パス_1345" data-name="パス 1345" d="M74.043,96.164q-.363-.18-.728-.366.365.186.728.366" transform="translate(-45.098 -58.927)" fill="#222"/>
        <path id="パス_1346" data-name="パス 1346" d="M76.119,97.192q-.3-.145-.61-.3.306.15.61.3" transform="translate(-46.447 -59.603)" fill="#222"/>
        <path id="パス_1347" data-name="パス 1347" d="M27.334,8.677l-.107.034.107-.034" transform="translate(-16.748 -5.337)" fill="#222"/>
        <path id="パス_1348" data-name="パス 1348" d="M29.343,8.185,29.3,8.2l.045-.01" transform="translate(-18.022 -5.035)" fill="#222"/>
        <path id="パス_1349" data-name="パス 1349" d="M28.282,8.409l-.108.029.108-.029" transform="translate(-17.33 -5.173)" fill="#222"/>
        <path id="パス_1350" data-name="パス 1350" d="M26.408,9.014l-.065.024.065-.024" transform="translate(-16.204 -5.545)" fill="#222"/>
        <path id="パス_1351" data-name="パス 1351" d="M30.522,7.961l-.1.015.1-.015" transform="translate(-18.711 -4.897)" fill="#222"/>
        <path id="パス_1352" data-name="パス 1352" d="M32.692,7.717l-.126.01.126-.01" transform="translate(-20.032 -4.747)" fill="#222"/>
        <path id="パス_1353" data-name="パス 1353" d="M25.4,9.43l-.062.029L25.4,9.43" transform="translate(-15.583 -5.801)" fill="#222"/>
        <path id="パス_1354" data-name="パス 1354" d="M31.59,7.816l-.134.015.134-.015" transform="translate(-19.349 -4.808)" fill="#222"/>
        <path id="パス_1355" data-name="パス 1355" d="M17.96,23.658q.03.331.087.675-.056-.344-.087-.675" transform="translate(-11.048 -14.553)" fill="#222"/>
        <path id="パス_1356" data-name="パス 1356" d="M20.961,12.6c-.022.025-.045.048-.066.074.021-.025.044-.049.066-.074" transform="translate(-12.853 -7.75)" fill="#222"/>
        <path id="パス_1357" data-name="パス 1357" d="M33.991,7.657h0" transform="translate(-20.907 -4.71)" fill="#222"/>
        <path id="パス_1358" data-name="パス 1358" d="M18.531,15.953a5.061,5.061,0,0,0-.26.812,5.061,5.061,0,0,1,.26-.812" transform="translate(-11.239 -9.813)" fill="#222"/>
        <path id="パス_1359" data-name="パス 1359" d="M17.872,21.97q0,.318.034.65-.031-.331-.034-.65" transform="translate(-10.993 -13.514)" fill="#222"/>
        <path id="パス_1360" data-name="パス 1360" d="M23.767,10.266l-.087.053.087-.053" transform="translate(-14.566 -6.315)" fill="#222"/>
        <path id="パス_1361" data-name="パス 1361" d="M24.542,9.822l-.093.05.093-.05" transform="translate(-15.039 -6.042)" fill="#222"/>
        <path id="パス_1362" data-name="パス 1362" d="M22.194,11.406l-.066.058.066-.058" transform="translate(-13.611 -7.016)" fill="#222"/>
        <path id="パス_1363" data-name="パス 1363" d="M23,10.821l-.035.024L23,10.821" transform="translate(-14.127 -6.656)" fill="#222"/>
        <path id="パス_1364" data-name="パス 1364" d="M18,18.807c-.034.193-.059.392-.075.595.016-.2.041-.4.075-.595" transform="translate(-11.025 -11.569)" fill="#222"/>
        <path id="パス_1365" data-name="パス 1365" d="M57.656,12.46l-.2-.075.2.075" transform="translate(-35.344 -7.618)" fill="#222"/>
        <path id="パス_1366" data-name="パス 1366" d="M54.013,11.166l-.184-.061.184.061" transform="translate(-33.111 -6.831)" fill="#222"/>
        <path id="パス_1367" data-name="パス 1367" d="M55.93,11.825l-.07-.025.07.025" transform="translate(-34.361 -7.258)" fill="#222"/>
        <path id="パス_1368" data-name="パス 1368" d="M52.4,10.647l-.177-.056.177.056" transform="translate(-32.123 -6.515)" fill="#222"/>
        <path id="パス_1369" data-name="パス 1369" d="M61.369,13.939l-.145-.062.145.062" transform="translate(-37.66 -8.536)" fill="#222"/>
        <path id="パス_1370" data-name="パス 1370" d="M59.343,13.112l-.176-.069.176.069" transform="translate(-36.395 -8.023)" fill="#222"/>
        <path id="パス_1371" data-name="パス 1371" d="M63.1,14.679l-.206-.09.206.09" transform="translate(-38.685 -8.974)" fill="#222"/>
        <path id="パス_1372" data-name="パス 1372" d="M50.568,10.1l-.091-.025.091.025" transform="translate(-31.049 -6.195)" fill="#222"/>
        <path id="パス_1373" data-name="パス 1373" d="M45.573,8.84l-.13-.027.13.027" transform="translate(-27.953 -5.421)" fill="#222"/>
        <path id="パス_1374" data-name="パス 1374" d="M39.495,7.865l-.15-.016.15.016" transform="translate(-24.202 -4.828)" fill="#222"/>
        <path id="パス_1375" data-name="パス 1375" d="M42.571,8.274l-.093-.016.093.016" transform="translate(-26.129 -5.08)" fill="#222"/>
        <path id="パス_1376" data-name="パス 1376" d="M48.907,9.639l-.18-.048.18.048" transform="translate(-29.972 -5.9)" fill="#222"/>
        <path id="パス_1377" data-name="パス 1377" d="M113.927,100.843l.139,0-.139,0" transform="translate(-70.079 -62.031)" fill="#222"/>
        <path id="パス_1378" data-name="パス 1378" d="M40.892,8.028l-.141-.018.141.018" transform="translate(-25.067 -4.927)" fill="#222"/>
        <path id="パス_1379" data-name="パス 1379" d="M47.362,9.247l-.144-.035.144.035" transform="translate(-29.045 -5.666)" fill="#222"/>
        <path id="パス_1380" data-name="パス 1380" d="M44.057,8.536,43.889,8.5l.168.032" transform="translate(-26.997 -5.231)" fill="#222"/>
        <path id="パス_1381" data-name="パス 1381" d="M36.544,7.661l-.139,0,.139,0" transform="translate(-22.393 -4.709)" fill="#222"/>
        <path id="パス_1382" data-name="パス 1382" d="M38.033,7.736h0" transform="translate(-23.391 -4.759)" fill="#222"/>
        <path id="パス_1383" data-name="パス 1383" d="M91.069,95.288l.176.069-.176-.069" transform="translate(-56.018 -58.614)" fill="#222"/>
        <path id="パス_1384" data-name="パス 1384" d="M89.095,94.477l.143.061-.143-.061" transform="translate(-54.804 -58.115)" fill="#222"/>
        <path id="パス_1385" data-name="パス 1385" d="M92.723,95.933l.2.074-.2-.074" transform="translate(-57.036 -59.01)" fill="#222"/>
        <path id="パス_1386" data-name="パス 1386" d="M87.268,93.688l.205.09-.205-.09" transform="translate(-53.68 -57.629)" fill="#222"/>
        <path id="パス_1387" data-name="パス 1387" d="M83.468,91.931l.181.087-.181-.087" transform="translate(-51.343 -56.549)" fill="#222"/>
        <path id="パス_1388" data-name="パス 1388" d="M85.584,92.93,85.73,93l-.146-.066" transform="translate(-52.644 -57.163)" fill="#222"/>
        <path id="パス_1389" data-name="パス 1389" d="M94.659,96.649l.066.024-.066-.024" transform="translate(-58.227 -59.451)" fill="#222"/>
        <path id="パス_1390" data-name="パス 1390" d="M96.387,97.248l.183.061-.183-.061" transform="translate(-59.29 -59.819)" fill="#222"/>
        <path id="パス_1391" data-name="パス 1391" d="M81.675,91.051l.2.1-.2-.1" transform="translate(-50.24 -56.007)" fill="#222"/>
        <path id="パス_1392" data-name="パス 1392" d="M103.1,99.208l.143.035-.143-.035" transform="translate(-63.42 -61.025)" fill="#222"/>
        <path id="パス_1393" data-name="パス 1393" d="M104.914,99.628l.129.027-.129-.027" transform="translate(-64.535 -61.283)" fill="#222"/>
        <path id="パス_1394" data-name="パス 1394" d="M106.369,99.925l.167.032-.167-.032" transform="translate(-65.43 -61.466)" fill="#222"/>
        <path id="パス_1395" data-name="パス 1395" d="M98.013,97.777l.175.055-.175-.055" transform="translate(-60.29 -60.145)" fill="#222"/>
        <path id="パス_1396" data-name="パス 1396" d="M99.981,98.375l.089.025-.089-.025" transform="translate(-61.5 -60.512)" fill="#222"/>
        <path id="パス_1397" data-name="パス 1397" d="M101.5,98.8l.179.047L101.5,98.8" transform="translate(-62.434 -60.772)" fill="#222"/>
        <path id="パス_1398" data-name="パス 1398" d="M19.039,29.1q.107.365.24.741-.133-.376-.24-.741" transform="translate(-11.711 -17.899)" fill="#222"/>
        <path id="パス_1399" data-name="パス 1399" d="M60.379,78.046l.194.139-.194-.139" transform="translate(-37.14 -48.008)" fill="#222"/>
        <path id="パス_1400" data-name="パス 1400" d="M79.967,90.181l.075.038-.075-.038" transform="translate(-49.189 -55.472)" fill="#222"/>
        <path id="パス_1401" data-name="パス 1401" d="M50.453,70.293q.5.423,1.018.841-.517-.419-1.018-.841" transform="translate(-31.035 -43.239)" fill="#222"/>
        <path id="パス_1402" data-name="パス 1402" d="M109.577,100.455l.139.018-.139-.018" transform="translate(-67.403 -61.792)" fill="#222"/>
        <path id="パス_1403" data-name="パス 1403" d="M19.663,31.023q.132.375.289.76-.157-.385-.289-.76" transform="translate(-12.095 -19.083)" fill="#222"/>
        <path id="パス_1404" data-name="パス 1404" d="M107.979,100.214l.09.015-.09-.015" transform="translate(-66.42 -61.644)" fill="#222"/>
        <path id="パス_1405" data-name="パス 1405" d="M110.961,100.621l.149.016-.149-.016" transform="translate(-68.254 -61.894)" fill="#222"/>
        <path id="パス_1406" data-name="パス 1406" d="M112.653,100.775h0" transform="translate(-69.295 -61.989)" fill="#222"/>
        <path id="パス_1407" data-name="パス 1407" d="M62.22,79.358l.179.126-.179-.126" transform="translate(-38.273 -48.815)" fill="#222"/>
        <path id="パス_1408" data-name="パス 1408" d="M75.979,88.031l.194.108-.194-.108" transform="translate(-46.736 -54.15)" fill="#222"/>
        <path id="パス_1409" data-name="パス 1409" d="M77.76,89.01l.2.108-.2-.108" transform="translate(-47.832 -54.752)" fill="#222"/>
        <path id="パス_1410" data-name="パス 1410" d="M74.021,86.916l.1.056-.1-.056" transform="translate(-45.532 -53.464)" fill="#222"/>
        <path id="パス_1411" data-name="パス 1411" d="M71.991,85.718l.205.123-.205-.123" transform="translate(-44.283 -52.727)" fill="#222"/>
        <path id="パス_1412" data-name="パス 1412" d="M68.1,83.3l.152.1-.152-.1" transform="translate(-41.887 -51.24)" fill="#222"/>
        <path id="パス_1413" data-name="パス 1413" d="M70.217,84.638l.167.1-.167-.1" transform="translate(-43.192 -52.063)" fill="#222"/>
        <path id="パス_1414" data-name="パス 1414" d="M25.144,42.027q-.612-.9-1.125-1.783.511.879,1.125,1.783" transform="translate(-14.775 -24.755)" fill="#222"/>
        <path id="パス_1415" data-name="パス 1415" d="M21.053,34.483q-.077-.169-.15-.335.073.167.15.335" transform="translate(-12.858 -21.005)" fill="#222"/>
        <path id="パス_1416" data-name="パス 1416" d="M36.7,56.927c-1.18-1.158-2.263-2.325-3.24-3.484.977,1.159,2.06,2.325,3.24,3.484" transform="translate(-20.582 -32.874)" fill="#222"/>
        <path id="パス_1417" data-name="パス 1417" d="M21.777,36.045q.289.6.63,1.207-.341-.611-.63-1.207" transform="translate(-13.395 -22.172)" fill="#222"/>
        <path id="パス_1418" data-name="パス 1418" d="M46.759,67.076l-.114-.1.114.1" transform="translate(-28.692 -41.198)" fill="#222"/>
        <path id="パス_1419" data-name="パス 1419" d="M44.216,64.741q.459.431.935.86-.476-.428-.935-.86" transform="translate(-27.198 -39.823)" fill="#222"/>
        <path id="パス_1420" data-name="パス 1420" d="M34.428,68.256q-.28-.259-.555-.52.274.26.555.52" transform="translate(-20.836 -41.666)" fill="#222"/>
        <path id="パス_1421" data-name="パス 1421" d="M64.421,80.88l.117.079-.117-.079" transform="translate(-39.627 -49.751)" fill="#222"/>
        <path id="パス_1422" data-name="パス 1422" d="M66.184,82.059l.205.135-.205-.135" transform="translate(-40.711 -50.476)" fill="#222"/>
        <path id="パス_1423" data-name="パス 1423" d="M51.028,39.306c-4.474,6.027-18.993,2.827-32.428-7.148q-.269-.2-.534-.4A66.02,66.02,0,0,1,12.878,27.4C7.785,22.638,4.091,17.587,2.29,13.127A13.466,13.466,0,0,1,1.107,6.578,6.805,6.805,0,0,1,2.375,3.185,7.25,7.25,0,0,1,6.375.6c.079-.023.16-.043.241-.065l.1-.024A13.419,13.419,0,0,1,9.978.137h0c.266,0,.538.008.813.021a22.751,22.751,0,0,1,2.369.222C7.771-.573,3.454.246,1.342,3.091-2.618,8.424,2.474,19.114,12.878,28.5v3.3h3.959q.527.407,1.067.809c13.7,10.172,28.5,13.445,33.051,7.312a7.051,7.051,0,0,0,1.321-3.836,6.749,6.749,0,0,1-1.248,3.218" transform="translate(0 0)" fill="#222"/>
        <path id="パス_1424" data-name="パス 1424" d="M20.7.356A13.417,13.417,0,0,0,17.439.73,14.8,14.8,0,0,1,21.518.377c-.275-.012-.547-.021-.813-.021Z" transform="translate(-10.727 -0.219)" fill="#222"/>
        <path id="パス_1425" data-name="パス 1425" d="M2.782,17.092A13.47,13.47,0,0,0,3.966,23.64a13.923,13.923,0,0,1-1.184-6.548" transform="translate(-1.676 -10.514)" fill="#222"/>
        <path id="パス_1426" data-name="パス 1426" d="M16.563,1.456c.08-.022.16-.044.241-.064-.081.021-.162.042-.241.064" transform="translate(-10.188 -0.856)" fill="#222"/>
      </g>
    </g>
  </g>
</svg>
